<?xml version="1.0" encoding="utf-8"?>
<!-- Generator: Adobe Illustrator 27.5.0, SVG Export Plug-In . SVG Version: 6.00 Build 0)  -->
<svg version="1.1" xmlns="http://www.w3.org/2000/svg" xmlns:xlink="http://www.w3.org/1999/xlink" x="0px" y="0px"
	 viewBox="0 0 3710 3710" style="enable-background:new 0 0 3710 3710;" xml:space="preserve">
<g id="Background">
	<g>
		<g>
			<rect style="fill:#FFFFFF;" width="3710" height="3710"/>
		</g>
	</g>
</g>
<g id="Illustration">
	<g>
		<linearGradient id="SVGID_1_" gradientUnits="userSpaceOnUse" x1="3454.4565" y1="3274.5903" x2="1385.549" y2="1464.2976">
			<stop  offset="0" style="stop-color:#DAE3FE"/>
			<stop  offset="1" style="stop-color:#E9EFFD"/>
		</linearGradient>
		<path style="fill:url(#SVGID_1_);" d="M3102.85,2334.424c-267.386,629.587-979.641,982.286-1597.31,887.147
			c-100.507-15.482-376.05-61.597-620.006-279.155C415.904,2523.602,315.47,1694.293,694.306,1109.86
			c275.727-425.365,769.995-666.49,1239.646-654.428c101.163,2.598,488.862,18.61,829.582,299.56
			c50.045,41.266,160.424,139.326,259.903,294.891C3257.03,1415.178,3277.109,1924.115,3102.85,2334.424z"/>
		<g>
			<g>
				<g style="opacity:0.3;">
					<path style="fill:#91B3FA;" d="M2718.479,1018.384c-6.401,0.046-11.625-5.109-11.668-11.508
						c-0.087-12.433-0.714-25.047-1.866-37.493c-0.583-6.297,3.99-11.882,10.247-12.581c0.074-0.008,0.148-0.017,0.225-0.025
						c6.372-0.59,12.015,4.1,12.605,10.473c1.212,13.1,1.874,26.38,1.963,39.468c0.043,5.984-4.465,10.942-10.286,11.593
						C2719.298,1018.356,2718.891,1018.383,2718.479,1018.384z M2695.183,909.19c-2.836-12.167-6.219-24.327-10.06-36.154
						c-1.976-6.082,1.354-12.621,7.44-14.6c6.116-1.963,12.624,1.358,14.601,7.445c4.041,12.442,7.604,25.242,10.59,38.043
						c1.453,6.232-2.424,12.463-8.656,13.916c-0.453,0.105-0.906,0.183-1.356,0.233
						C2701.987,918.718,2696.531,914.97,2695.183,909.19z M2662.31,816.52c-5.458-11.2-11.469-22.297-17.872-32.99
						c-3.287-5.489-1.5-12.607,3.989-15.895c5.489-3.278,12.603-1.5,15.895,3.99c6.742,11.261,13.075,22.95,18.82,34.742
						c2.804,5.753,0.411,12.688-5.339,15.494c-1.227,0.597-2.507,0.959-3.789,1.102
						C2669.281,823.493,2664.515,821.047,2662.31,816.52z M2609.536,733.53c-7.832-9.709-16.179-19.187-24.804-28.179
						c-4.429-4.62-4.276-11.956,0.341-16.384c4.622-4.424,11.954-4.269,16.384,0.341c9.081,9.469,17.866,19.45,26.113,29.664
						c4.018,4.98,3.24,12.276-1.74,16.294c-1.782,1.438-3.86,2.262-5.979,2.499C2616.049,738.19,2612.118,736.726,2609.536,733.53z
						 M2539.589,664.365c-9.77-7.707-20.009-15.107-30.433-21.985c-5.341-3.529-6.811-10.716-3.287-16.056
						c3.527-5.345,10.716-6.814,16.054-3.284c10.966,7.237,21.739,15.023,32.019,23.133c5.024,3.961,5.885,11.248,1.919,16.273
						c-1.997,2.532-4.837,4.007-7.809,4.339C2545.129,667.112,2542.082,666.332,2539.589,664.365z M2456.082,612.401
						c-11.248-5.365-22.866-10.31-34.534-14.703c-5.988-2.255-9.017-8.939-6.762-14.925c2.255-5.991,8.935-9.019,14.927-6.765
						c12.279,4.621,24.509,9.831,36.346,15.476c5.775,2.757,8.224,9.67,5.47,15.448c-1.789,3.752-5.335,6.098-9.183,6.528
						C2460.27,613.691,2458.107,613.368,2456.082,612.401z M2026.061,627.626c-3.279-5.495-1.482-12.609,4.015-15.888
						c11.26-6.715,22.967-13.029,34.791-18.764c5.759-2.793,12.691-0.389,15.482,5.37c2.793,5.754,0.389,12.686-5.368,15.479
						c-11.228,5.445-22.343,11.443-33.034,17.82c-1.467,0.875-3.047,1.388-4.641,1.566
						C2032.93,633.699,2028.464,631.657,2026.061,627.626z M2363.19,580.26c-12.153-2.727-24.572-4.96-36.915-6.632
						c-6.343-0.862-10.787-6.701-9.927-13.041c0.86-6.345,6.698-10.755,13.042-9.924c12.997,1.763,26.076,4.113,38.875,6.986
						c6.243,1.402,10.17,7.598,8.768,13.844c-1.111,4.952-5.241,8.447-10.018,8.981
						C2365.771,580.614,2364.482,580.548,2363.19,580.26z M2116.97,583.643c-1.965-6.089,1.381-12.62,7.472-14.585
						c12.476-4.022,25.291-7.559,38.085-10.519c6.235-1.471,12.457,2.447,13.901,8.68c1.441,6.233-2.445,12.456-8.68,13.901
						c-12.16,2.812-24.339,6.173-36.194,9.998c-0.756,0.244-1.52,0.402-2.28,0.487
						C2123.912,592.204,2118.689,588.976,2116.97,583.643z M2265.463,569.687c-12.449,0.061-25.059,0.66-37.484,1.785
						c-6.375,0.58-12.008-4.119-12.586-10.494c-0.569-6.29,4.001-11.861,10.249-12.559c0.081-0.009,0.165-0.018,0.246-0.023
						c13.08-1.189,26.356-1.821,39.458-1.888c6.4-0.027,11.614,5.133,11.646,11.533c0.031,5.976-4.475,10.921-10.286,11.57
						C2266.298,569.657,2265.882,569.681,2265.463,569.687z"/>
					<path style="fill:#91B3FA;" d="M1971.485,681.043c2.267-0.253,4.485-1.175,6.333-2.794c4.495-3.936,9.148-7.84,13.827-11.616
						c4.982-4.014,5.768-11.311,1.752-16.291c-4.014-4.985-11.314-5.776-16.293-1.749c-4.924,3.966-9.816,8.075-14.548,12.215
						c-4.814,4.214-5.303,11.537-1.09,16.349C1964.064,680.128,1967.842,681.45,1971.485,681.043z"/>
				</g>
				<g style="opacity:0.3;">
					<path style="fill:#91B3FA;" d="M1817.617,999.045c5.558-0.621,9.999-5.198,10.275-10.963
						c0.283-5.966,0.696-12.029,1.229-18.014c0.567-6.376-4.14-12.003-10.514-12.57c-6.401-0.569-12.003,4.143-12.57,10.514
						c-0.56,6.302-0.996,12.686-1.296,18.968c-0.304,6.392,4.632,11.82,11.024,12.126
						C1816.393,999.136,1817.012,999.112,1817.617,999.045z"/>
					<path style="fill:#91B3FA;" d="M2295.338,1471.374c-6.387,0.4-11.889-4.456-12.287-10.847
						c-0.397-6.386,4.453-11.875,10.845-12.284c12.16-0.758,24.476-2.048,36.748-3.839c6.299-0.941,12.215,3.462,13.139,9.795
						c0.924,6.332-3.46,12.214-9.792,13.141c-5.317,0.776-10.626,1.461-15.925,2.053
						C2310.507,1470.239,2302.86,1470.906,2295.338,1471.374z M2381.372,1446.076c-1.771-6.146,1.776-12.568,7.925-14.339
						c11.805-3.406,23.594-7.342,35.038-11.709c5.965-2.297,12.675,0.714,14.958,6.694c2.28,5.976-0.718,12.673-6.695,14.954
						c-12.049,4.599-24.459,8.746-36.882,12.325c-0.644,0.186-1.293,0.313-1.936,0.385
						C2388.272,1455.001,2382.96,1451.583,2381.372,1446.076z M2232.197,1470.981c-12.855-0.964-25.847-2.49-38.613-4.542
						c-6.319-1.016-10.618-6.961-9.603-13.282c1.016-6.317,6.96-10.607,13.281-9.601c12.123,1.951,24.457,3.401,36.665,4.314
						c6.382,0.48,11.168,6.039,10.691,12.423c-0.424,5.645-4.826,10.04-10.255,10.647
						C2233.656,1471.018,2232.932,1471.035,2232.197,1470.981z M2474.195,1410.578c-3.08-5.608-1.03-12.656,4.581-15.733
						c10.754-5.903,21.382-12.337,31.591-19.121c5.333-3.547,12.52-2.096,16.063,3.237c3.542,5.329,2.094,12.519-3.235,16.061
						c-10.751,7.145-21.945,13.921-33.267,20.137c-1.369,0.75-2.822,1.199-4.283,1.363
						C2481.117,1417.028,2476.522,1414.818,2474.195,1410.578z M2132.123,1452.167c-12.322-3.765-24.654-8.111-36.657-12.918
						c-5.941-2.378-8.828-9.119-6.452-15.06c2.378-5.945,9.123-8.831,15.064-6.453c11.402,4.564,23.115,8.693,34.817,12.267
						c6.121,1.871,9.566,8.35,7.695,14.47c-1.394,4.56-5.345,7.634-9.799,8.132
						C2135.268,1452.776,2133.682,1452.644,2132.123,1452.167z M2038.601,1411.861c-11.228-6.383-22.316-13.314-32.958-20.6
						c-5.28-3.618-6.63-10.827-3.015-16.109c3.622-5.287,10.832-6.635,16.107-3.012c10.112,6.922,20.65,13.509,31.319,19.577
						c5.564,3.163,7.509,10.237,4.346,15.801c-1.907,3.351-5.234,5.39-8.794,5.788
						C2043.258,1413.568,2040.81,1413.117,2038.601,1411.861z M1956.082,1352.131c-9.576-8.681-18.892-17.864-27.687-27.287
						c-4.367-4.681-4.112-12.01,0.565-16.378c4.685-4.372,12.013-4.112,16.377,0.565c8.357,8.958,17.208,17.679,26.31,25.93
						c4.741,4.298,5.101,11.627,0.802,16.366c-1.974,2.179-4.585,3.432-7.293,3.734
						C1961.967,1355.417,1958.646,1354.454,1956.082,1352.131z M1888.559,1275.822c-7.446-10.563-14.526-21.568-21.042-32.708
						c-3.232-5.523-1.375-12.622,4.151-15.854c5.514-3.226,12.62-1.37,15.851,4.153c6.187,10.576,12.91,21.024,19.984,31.059
						c3.687,5.231,2.436,12.458-2.795,16.144c-1.653,1.164-3.502,1.835-5.378,2.045
						C1895.265,1281.116,1891.084,1279.402,1888.559,1275.822z M1839.428,1186.495c-4.923-11.915-9.4-24.199-13.309-36.514
						c-1.937-6.101,1.439-12.617,7.539-14.552c6.081-1.928,12.613,1.437,14.549,7.537c3.712,11.699,7.966,23.366,12.64,34.685
						c2.444,5.912-0.372,12.689-6.286,15.131c-1.03,0.425-2.086,0.693-3.141,0.811
						C1846.419,1194.153,1841.446,1191.38,1839.428,1186.495z M1811.14,1088.662c-1.629-9.359-2.99-18.885-4.043-28.309
						c-0.382-3.414-0.723-6.818-1.029-10.223c-0.571-6.371,4.04-12.12,10.504-12.574c6.373-0.576,12.005,4.128,12.578,10.504
						c0.291,3.233,0.615,6.476,0.977,9.719c1.002,8.961,2.293,18.011,3.842,26.911c1.098,6.303-3.125,12.304-9.428,13.401
						c-0.237,0.04-0.474,0.076-0.711,0.102C1817.792,1098.868,1812.194,1094.729,1811.14,1088.662z"/>
					<path style="fill:#91B3FA;" d="M2567.118,1359.169c2.29-0.256,4.523-1.193,6.379-2.831c4.7-4.155,9.401-8.488,13.972-12.879
						c4.617-4.433,4.765-11.769,0.332-16.383c-4.435-4.614-11.764-4.77-16.383-0.332c-4.343,4.17-8.809,8.286-13.27,12.232
						c-4.794,4.234-5.246,11.558-1.008,16.354C2559.74,1358.268,2563.497,1359.574,2567.118,1359.169z"/>
				</g>
				<g>
					<path style="fill:#91B3FA;" d="M2579.523,1160.908c1.252-1.943,1.136-4.464-0.291-6.281l-40.704-51.845
						c10.354-28.989,16.16-59.836,16.725-91.509l56.352-34.111c1.977-1.197,2.976-3.516,2.489-5.775l-16.657-77.288
						c-0.486-2.259-2.353-3.961-4.646-4.236l-65.401-7.872c-13.561-28.628-31.557-54.348-52.933-76.498l15.736-64.007
						c0.551-2.244-0.382-4.59-2.323-5.843l-66.429-42.874c-1.941-1.253-4.464-1.137-6.281,0.291l-51.844,40.705
						c-28.988-10.355-59.836-16.162-91.51-16.725l-34.111-56.352c-1.197-1.977-3.515-2.977-5.773-2.49l-77.29,16.656
						c-2.259,0.487-3.959,2.354-4.235,4.647l-7.872,65.401c-28.629,13.56-54.348,31.557-76.497,52.933l-64.008-15.737
						c-2.243-0.551-4.591,0.38-5.843,2.323l-42.874,66.429c-1.253,1.941-1.135,4.464,0.29,6.28l40.706,51.845
						c-10.355,28.988-16.16,59.836-16.725,91.509l-56.352,34.112c-1.977,1.196-2.977,3.515-2.49,5.773l16.657,77.29
						c0.487,2.259,2.353,3.96,4.646,4.235l65.401,7.873c13.561,28.628,31.558,54.348,52.933,76.498l-15.736,64.007
						c-0.552,2.243,0.38,4.59,2.322,5.843l66.43,42.873c1.941,1.253,4.463,1.136,6.28-0.291l51.844-40.705
						c28.989,10.355,59.836,16.16,91.51,16.726l34.111,56.352c1.196,1.975,3.514,2.975,5.774,2.489l77.289-16.658
						c2.258-0.487,3.96-2.352,4.236-4.647l7.872-65.399c28.629-13.561,54.347-31.558,76.497-52.933l64.008,15.737
						c2.243,0.552,4.59-0.382,5.843-2.322L2579.523,1160.908z"/>
					<g>
						<path style="fill:#BDD0FB;" d="M2263.631,1085.304c-43.794-1.536-78.175-38.409-76.642-82.207
							c0.741-21.216,9.702-40.872,25.23-55.347c15.523-14.474,35.757-22.042,56.975-21.294
							c43.794,1.536,78.176,38.409,76.643,82.207c-1.397,39.844-32.043,71.894-70.543,76.197
							C2271.477,1085.287,2267.579,1085.441,2263.631,1085.304z M2224.861,961.311c-11.905,11.1-18.774,26.169-19.344,42.438
							c-1.175,33.575,25.186,61.853,58.763,63.028c33.587,1.187,61.853-25.186,63.03-58.765
							c1.175-33.575-25.186-61.853-58.763-63.028c-3.045-0.106-6.058,0.012-9.031,0.344
							C2246.602,946.771,2234.537,952.292,2224.861,961.311z"/>
					</g>
					<path style="fill:#BDD0FB;" d="M2286.43,1199.117c6.612-0.739,13.226-1.815,19.819-3.235l0,0
						c2.075-0.446,4.144-0.928,6.204-1.441c10.158-2.534,20.098-5.872,29.668-9.961c0.13-0.056,0.261-0.111,0.391-0.166
						c0.369-0.16,0.739-0.319,1.107-0.484c0.719-0.313,1.434-0.634,2.148-0.955c1.877-0.847,2.915-2.79,2.7-4.733
						c-0.053-0.472-0.181-0.945-0.386-1.401c-1.054-2.333-3.801-3.36-6.131-2.312c-12.002,5.427-24.67,9.594-37.651,12.388
						c-64.478,13.907-128.49-7.576-171.749-51.327c-24.064-24.332-41.706-55.557-49.433-91.42c-1.357-6.289-2.385-12.6-3.088-18.907
						c-4.74-42.446,5.18-84.877,28.654-121.245c26.961-41.776,68.578-70.553,117.18-81.028
						c100.382-21.623,199.56,42.416,221.182,142.747c1.334,6.186,2.349,12.417,3.045,18.665c3.022,27.076,0.086,54.512-8.694,80.329
						c-0.226,0.667-0.293,1.349-0.218,2.005c0.193,1.727,1.357,3.278,3.114,3.874c2.427,0.817,5.058-0.465,5.881-2.898
						c9.217-27.104,12.303-55.91,9.13-84.335c-0.731-6.558-1.797-13.098-3.194-19.591
						c-22.701-105.339-126.896-172.553-232.197-149.861c-51.026,10.996-94.713,41.207-123.017,85.064
						c-24.644,38.179-35.056,82.724-30.083,127.284c0.74,6.621,1.82,13.246,3.24,19.846c10.999,51.028,41.207,94.717,85.063,123.021
						C2197.303,1193.69,2241.861,1204.098,2286.43,1199.117z"/>
				</g>
			</g>
			<g>
				<g style="opacity:0.3;">
					<path style="fill:#91B3FA;" d="M3146.593,1277.855c3.077-0.344,5.687-2.668,6.249-5.874c1.054-5.983,1.941-12.081,2.634-18.122
						c0.45-3.925-2.365-7.471-6.294-7.926c-3.931-0.467-7.474,2.369-7.926,6.294c-0.661,5.756-1.505,11.568-2.51,17.279
						c-0.687,3.888,1.915,7.599,5.807,8.289C3145.246,1277.914,3145.929,1277.929,3146.593,1277.855z"/>
					<path style="fill:#91B3FA;" d="M3150.384,1223.035c-3.952,0.034-7.186-3.135-7.223-7.09
						c-0.099-9.975-0.709-20.061-1.817-29.973c-0.234-2.09-0.493-4.186-0.773-6.285c-0.518-3.915,2.234-7.514,6.152-8.036
						c3.724-0.346,7.514,2.234,8.041,6.155c0.291,2.197,0.561,4.389,0.806,6.577c1.161,10.391,1.802,20.966,1.902,31.427
						c0.038,3.702-2.748,6.777-6.353,7.18C3150.878,1223.015,3150.633,1223.028,3150.384,1223.035z M3133.591,1144.017
						c-3.042-11.706-6.834-23.329-11.277-34.542c-1.455-3.677,0.341-7.83,4.018-9.289c3.657-1.443,7.834,0.341,9.289,4.018
						c4.657,11.751,8.635,23.937,11.822,36.212c0.994,3.827-1.302,7.734-5.129,8.731c-0.334,0.086-0.677,0.146-1.013,0.183
						C3137.822,1149.718,3134.498,1147.502,3133.591,1144.017z M3106.844,1076.583c-5.807-10.589-12.343-20.921-19.426-30.72
						c-2.313-3.201-1.593-7.677,1.608-9.99c3.214-2.321,7.676-1.603,9.993,1.605c7.428,10.273,14.281,21.118,20.374,32.217
						c1.9,3.465,0.635,7.819-2.83,9.719c-0.846,0.46-1.743,0.736-2.646,0.837C3111.122,1080.564,3108.283,1079.2,3106.844,1076.583z
						 M3064.346,1017.78c-8.24-8.854-17.108-17.279-26.345-25.024c-3.03-2.545-3.426-7.057-0.885-10.084
						c2.535-3.019,7.05-3.425,10.081-0.888c9.692,8.129,18.984,16.957,27.628,26.244c2.693,2.892,2.528,7.425-0.364,10.118
						c-1.17,1.081-2.601,1.704-4.074,1.869C3068.21,1020.26,3065.952,1019.507,3064.346,1017.78z M3008.779,971.135
						c-10.141-6.581-20.782-12.593-31.633-17.879c-3.551-1.727-5.029-6.013-3.299-9.568c1.73-3.555,6.012-5.04,9.568-3.299
						c11.372,5.536,22.527,11.842,33.157,18.734c3.314,2.154,4.259,6.585,2.109,9.898c-1.215,1.873-3.158,2.99-5.214,3.22
						C3011.88,972.42,3010.223,972.071,3008.779,971.135z M2943.573,939.393c-11.426-3.913-23.2-7.146-35.006-9.61
						c-3.866-0.806-6.351-4.6-5.542-8.466c0.809-3.867,4.587-6.343,8.469-5.546c12.377,2.583,24.733,5.977,36.719,10.081
						c3.737,1.284,5.732,5.351,4.451,9.087c-0.928,2.706-3.316,4.499-5.979,4.797
						C2945.667,939.849,2944.608,939.749,2943.573,939.393z M2872.614,924.568c-11.999-0.986-24.22-1.231-36.326-0.722
						c-3.948,0.16-7.283-2.906-7.447-6.854c-0.168-3.947,2.898-7.223,6.853-7.454c12.691-0.525,25.505-0.27,38.089,0.764
						c3.939,0.326,6.872,3.782,6.548,7.721c-0.284,3.464-2.997,6.151-6.331,6.523
						C2873.549,924.596,2873.086,924.607,2872.614,924.568z M2755.823,930.899c-1.12-3.792,1.044-7.768,4.837-8.888
						c10.494-3.1,21.338-5.676,32.2-7.657c1.65-0.31,3.295-0.593,4.945-0.869c3.861-0.755,7.585,1.993,8.223,5.903
						c0.644,3.901-1.997,7.579-5.899,8.226c-1.548,0.251-3.096,0.522-4.669,0.818c-10.397,1.893-20.742,4.351-30.749,7.305
						c-0.412,0.123-0.828,0.205-1.238,0.251C2760.087,936.365,2756.819,934.276,2755.823,930.899z"/>
				</g>
				<g style="opacity:0.3;">
					<path style="fill:#91B3FA;" d="M2878.396,1526.074c-12.413,1.225-25.008,1.698-37.437,1.421
						c-3.949-0.093-7.082-3.365-6.993-7.32c0.089-3.956,3.393-7.046,7.32-6.993c11.852,0.271,23.865-0.185,35.707-1.354
						c3.933-0.391,7.437,2.488,7.824,6.418c0.384,3.902-2.441,7.383-6.324,7.817
						C2878.462,1526.067,2878.427,1526.07,2878.396,1526.074z M2906.878,1514.718c-0.856-3.856,1.578-7.68,5.436-8.533
						c11.607-2.577,23.175-5.882,34.384-9.828c3.709-1.294,7.815,0.645,9.125,4.381c1.313,3.728-0.646,7.808-4.374,9.125
						c-11.747,4.133-23.87,7.598-36.034,10.294c-0.257,0.057-0.509,0.099-0.766,0.128
						C2911.065,1520.685,2907.679,1518.328,2906.878,1514.718z M2803.599,1524.35c-12.348-1.813-24.69-4.393-36.681-7.672
						c-3.812-1.044-6.059-4.984-5.015-8.792c1.04-3.816,4.964-6.047,8.788-5.019c11.44,3.131,23.21,5.592,34.99,7.327
						c3.911,0.575,6.614,4.212,6.041,8.115c-0.483,3.289-3.129,5.723-6.283,6.075
						C2804.841,1524.45,2804.225,1524.442,2803.599,1524.35z M2976.398,1492.038c-1.759-3.538-0.313-7.835,3.225-9.594
						c10.646-5.29,21.07-11.287,30.986-17.831c3.298-2.169,7.739-1.259,9.914,2.028c2.177,3.301,1.269,7.741-2.031,9.918
						c-10.397,6.866-21.333,13.158-32.499,18.704c-0.773,0.382-1.581,0.612-2.389,0.703
						C2980.699,1496.29,2977.773,1494.803,2976.398,1492.038z M2731.461,1504.607c-11.523-4.718-22.877-10.193-33.753-16.27
						c-3.45-1.928-4.684-6.291-2.755-9.741c1.928-3.451,6.287-4.691,9.741-2.756c10.371,5.803,21.2,11.02,32.192,15.516
						c3.656,1.498,5.41,5.676,3.909,9.338c-1.024,2.506-3.316,4.119-5.834,4.4
						C2733.812,1505.223,2732.61,1505.076,2731.461,1504.607z M2666.155,1468.13c-10.077-7.355-19.798-15.39-28.89-23.874
						c-2.888-2.694-3.047-7.219-0.349-10.109c2.691-2.889,7.222-3.051,10.116-0.35c8.671,8.089,17.946,15.751,27.563,22.771
						c3.193,2.329,3.891,6.808,1.561,10.001c-1.232,1.685-3.062,2.678-4.99,2.893
						C2669.451,1469.653,2667.659,1469.227,2666.155,1468.13z M2611.458,1417.062c-8.031-9.559-15.542-19.697-22.327-30.121
						c-2.157-3.317-1.217-7.747,2.096-9.904c3.311-2.157,7.745-1.211,9.9,2.093c6.467,9.945,13.631,19.609,21.291,28.718
						c2.543,3.028,2.151,7.544-0.878,10.084c-1.121,0.948-2.447,1.483-3.801,1.634
						C2615.441,1419.823,2613.06,1418.964,2611.458,1417.062z"/>
					<path style="fill:#91B3FA;" d="M3044.888,1455.493c1.372-0.153,2.713-0.704,3.843-1.668c4.662-3.974,9.224-8.106,13.569-12.276
						c2.848-2.738,2.943-7.27,0.205-10.122c-2.74-2.837-7.266-2.936-10.122-0.204c-4.14,3.979-8.496,7.919-12.942,11.714
						c-3.008,2.565-3.364,7.085-0.799,10.089C3040.244,1454.901,3042.607,1455.748,3044.888,1455.493z"/>
				</g>
				<g>
					<path style="fill:#91B3FA;" d="M3057.395,1319.821c0.838-1.3,0.76-2.987-0.195-4.203l-27.237-34.692
						c6.928-19.398,10.813-40.04,11.191-61.233l37.708-22.826c1.323-0.801,1.991-2.352,1.666-3.864l-11.146-51.718
						c-0.325-1.512-1.575-2.651-3.108-2.835l-43.763-5.267c-9.074-19.157-21.116-36.367-35.42-51.189l10.53-42.831
						c0.369-1.502-0.256-3.072-1.554-3.91l-44.452-28.689c-1.299-0.839-2.987-0.761-4.203,0.195l-34.691,27.237
						c-19.398-6.929-40.041-10.814-61.235-11.192l-22.825-37.708c-0.801-1.323-2.352-1.992-3.863-1.666l-51.719,11.146
						c-1.512,0.326-2.649,1.575-2.834,3.109l-5.268,43.763c-19.157,9.074-36.367,21.116-51.188,35.421l-42.832-10.531
						c-1.501-0.369-3.072,0.255-3.909,1.554l-28.689,44.452c-0.838,1.298-0.759,2.986,0.195,4.202l27.238,34.693
						c-6.929,19.397-10.814,40.039-11.192,61.234l-37.708,22.826c-1.323,0.8-1.992,2.351-1.666,3.863l11.146,51.719
						c0.326,1.511,1.574,2.649,3.109,2.834l43.763,5.267c9.074,19.157,21.117,36.367,35.421,51.189l-10.53,42.831
						c-0.369,1.501,0.255,3.071,1.554,3.91l44.451,28.689c1.299,0.839,2.987,0.76,4.203-0.194l34.692-27.238
						c19.398,6.929,40.04,10.814,61.234,11.192l22.825,37.708c0.801,1.322,2.352,1.991,3.864,1.666l51.718-11.147
						c1.511-0.326,2.65-1.575,2.834-3.109l5.268-43.762c19.157-9.074,36.367-21.118,51.188-35.421l42.832,10.53
						c1.501,0.37,3.072-0.255,3.909-1.554L3057.395,1319.821z"/>
					<path style="opacity:0.56;fill:#91B3FA;" d="M2845.985,1270.183c-14.455-0.501-27.846-6.606-37.706-17.185
						c-9.86-10.572-15.012-24.356-14.504-38.809c1.043-29.828,26.125-53.203,55.998-52.209c29.833,1.053,53.25,26.172,52.202,55.995
						c-0.505,14.452-6.607,27.842-17.182,37.702c-8.598,8.015-19.316,12.919-30.79,14.201
						C2851.367,1270.172,2848.685,1270.275,2845.985,1270.183z M2808.079,1214.685c-0.373,10.633,3.416,20.772,10.671,28.555
						c7.251,7.776,17.103,12.266,27.732,12.639l0,0c10.631,0.359,20.768-3.419,28.551-10.674
						c7.78-7.248,12.266-17.103,12.639-27.729c0.768-21.943-16.456-40.419-38.399-41.194c-1.981-0.067-3.93,0.01-5.844,0.224
						C2824.137,1178.663,2808.777,1194.727,2808.079,1214.685z"/>
					<path style="fill:#BDD0FB;" d="M2861.858,1349.395c4.501-0.503,9.011-1.24,13.53-2.209c8.972-1.931,17.758-4.777,26.132-8.47
						c0.375-0.169,0.75-0.337,1.125-0.506c2.899-1.309,4.501-4.308,4.169-7.309c-0.081-0.729-0.279-1.459-0.597-2.162
						c-1.627-3.602-5.868-5.182-9.468-3.569c-7.786,3.522-15.986,6.217-24.372,8.02l-0.003,0c-0.46,0.1-0.924,0.194-1.381,0.288
						c-19.885,4.086-40.035,3.061-58.953-2.7c-10.269-3.128-20.178-7.661-29.483-13.548c-0.076-0.048-0.151-0.095-0.227-0.143
						c-0.231-0.151-0.462-0.293-0.69-0.444c-27.042-17.456-45.674-44.396-52.454-75.861c-0.881-4.072-1.544-8.154-2.001-12.238
						c-3.068-27.478,3.356-54.947,18.551-78.496c17.456-27.043,44.398-45.667,75.859-52.447
						c31.446-6.764,63.688-0.902,90.734,16.547c27.043,17.455,45.674,44.396,52.454,75.861c0.866,4.003,1.521,8.037,1.972,12.079
						c1.956,17.532,0.056,35.29-5.629,52.002c-0.349,1.031-0.453,2.083-0.336,3.097c0.298,2.667,2.095,5.062,4.807,5.982
						c3.745,1.262,7.807-0.725,9.082-4.475c6.359-18.7,8.487-38.573,6.303-58.181c-0.506-4.528-1.239-9.039-2.204-13.517
						c-7.589-35.207-28.43-65.347-58.69-84.876c-30.256-19.523-66.291-26.129-101.506-18.514
						c-35.204,7.585-65.344,28.422-84.87,58.686c-17.003,26.339-24.187,57.072-20.754,87.814c0.51,4.563,1.253,9.136,2.233,13.688
						C2729.885,1311.951,2794.005,1356.98,2861.858,1349.395z"/>
				</g>
			</g>
		</g>
		<g>
			<g>
				<path style="fill:#91B3FA;" d="M1238.152,1852.599c0,0-30.805-296.113-176.902-357.703
					c-146.096-61.59-410.957-77.862-474.963-500.519c-37.473-247.442-57.516-355.16-67.694-401.944
					c-3.97-18.25,10.522-35.249,29.166-34.152c131.886,7.759,563.021,54.009,687.317,328.308
					C1382.429,1211.771,1238.152,1852.599,1238.152,1852.599z"/>
				<path style="fill:#BDD0FB;" d="M662.464,663.461c157.513,107.959,349.557,310.137,465.27,522.096
					c15.895,35.339,58.627,109.347,90.636,246.466c27.536,114.252,36.918,237.508,31.919,320.534
					c-0.316,5.249-4.827,9.248-10.076,8.932c-9.026-0.542-9.068-10.169-8.95-9.881c-0.174-140.735-29.553-312.166-89.741-462.532
					c-75.905-184.375-214.352-354.823-353.133-496.65l-14.192-13.898C667.133,672.242,647.667,673.852,655.208,664.521
					C656.988,662.317,660.163,661.892,662.464,663.461z"/>
			</g>
			<g>
				<path style="fill:#BDD0FB;" d="M1243.495,2419.918c17.903,10.304-159.61-246.154-194.859-632.753
					c-16.61-182.176-1.97-408.069-98.877-501.938c-80.652-78.123-374.528-51.72-470.844-40.664
					c-12.035,1.381-17.037,16.136-8.297,24.526c43.088,41.359,134.701,138.248,154.081,231.046
					c25.545,122.315,134.636,206.284,235.472,233.75c100.836,27.465,156.359,51.305,195.288,218.07
					C1094.387,2118.72,1192.625,2390.639,1243.495,2419.918z"/>
				<path style="fill:#91B3FA;" d="M609.381,1304.197c121.073,13.155,247.717,77.202,306.947,185.486l5.583,10.328
					c12.872,24.203,83.597,194.877,119.873,334.871c0.451,1.745-0.597,3.527-2.342,3.979c-2.964,0.767-4.205-2.521-3.947-2.22
					c-26.474-79.484-65.363-180.611-96.654-256.38c-33.464-82.635-57.003-138.657-142.02-196.47
					c-94.751-62.474-188.44-74.484-188.162-74.408c-1.426-0.242-2.386-1.594-2.144-3.02
					C606.75,1304.991,608.017,1304.052,609.381,1304.197z"/>
			</g>
		</g>
		<g>
			<g>
				<g>
					
						<linearGradient id="SVGID_00000070083949138489413680000008224272601658066825_" gradientUnits="userSpaceOnUse" x1="2091.6956" y1="2124.7375" x2="1976.9552" y2="3724.3523">
						<stop  offset="0" style="stop-color:#09005D"/>
						<stop  offset="1" style="stop-color:#1A0F91"/>
					</linearGradient>
					<polygon style="fill:url(#SVGID_00000070083949138489413680000008224272601658066825_);" points="1775.487,2480.909 
						1720.604,2859.661 2357.355,2859.661 2274.418,2480.909 					"/>
					
						<linearGradient id="SVGID_00000111192408194131490580000003488587872708701882_" gradientUnits="userSpaceOnUse" x1="2103.6929" y1="474.5585" x2="1914.7089" y2="2492.6328">
						<stop  offset="0" style="stop-color:#09005D"/>
						<stop  offset="1" style="stop-color:#1A0F91"/>
					</linearGradient>
					<path style="fill:url(#SVGID_00000111192408194131490580000003488587872708701882_);" d="M705.857,1268.171v1127.324
						c0,92.738,73.901,168.574,166.607,170.965c411.754,10.617,1851.87,36.363,2243.832,30.585
						c67.368-0.993,121.942-54.904,123.886-122.251c7.558-261.893,19.833-891.657-25.593-1184.032
						c-9.566-61.571-61.538-107.613-123.816-109.604c-344.998-11.037-1871.615-46.082-2263.394-37.283
						C759.81,1145.392,705.857,1200.585,705.857,1268.171z"/>
					
						<linearGradient id="SVGID_00000057834011905354216370000004939375237333259435_" gradientUnits="userSpaceOnUse" x1="3473.5771" y1="1095.8145" x2="733.2994" y2="2411.9595">
						<stop  offset="0" style="stop-color:#FEBBBA"/>
						<stop  offset="1" style="stop-color:#FF928E"/>
					</linearGradient>
					<path style="fill:url(#SVGID_00000057834011905354216370000004939375237333259435_);" d="M776.593,1262.683v1071.036
						c0,54.146,43.464,98.264,97.603,99.073l2185.709,27.004c53.675,0.803,97.672-42.381,97.873-96.062l3.656-1061.466
						c0.143-38.383-30.436-69.832-68.808-70.766l-2237.761-45.209C811.948,1185.249,776.593,1219.754,776.593,1262.683z"/>
					<path style="fill:#91B3FA;" d="M3174.234,2504.013c-0.02,0-0.039,0-0.059,0l-2397.639-40.854
						c-1.851-0.032-3.325-1.558-3.294-3.407c0.033-1.853,1.636-3.365,3.409-3.296l2397.639,40.854
						c1.851,0.033,3.325,1.558,3.294,3.407C3177.553,2502.55,3176.059,2504.013,3174.234,2504.013z"/>
					<path style="fill:#91B3FA;" d="M1999.066,2553.907c-15.604,0-28.299-12.696-28.299-28.299s12.694-28.299,28.299-28.299
						s28.299,12.696,28.299,28.299S2014.67,2553.907,1999.066,2553.907z M1999.066,2504.013c-11.907,0-21.595,9.688-21.595,21.595
						c0,11.907,9.688,21.595,21.595,21.595s21.595-9.688,21.595-21.595C2020.661,2513.701,2010.973,2504.013,1999.066,2504.013z"/>
					
						<linearGradient id="SVGID_00000140710058163035935170000013864556307266394761_" gradientUnits="userSpaceOnUse" x1="2076.8259" y1="1929.0826" x2="2029.5791" y2="2907.7529">
						<stop  offset="0" style="stop-color:#09005D"/>
						<stop  offset="1" style="stop-color:#1A0F91"/>
					</linearGradient>
					<path style="fill:url(#SVGID_00000140710058163035935170000013864556307266394761_);" d="M2494.512,2960.37h-931.93
						c-25.318,0-44.33-18.023-39.435-37.384l11.958-47.293c3.596-14.222,19.243-24.664,37.827-25.244l898.414-28.034
						c19.416-0.606,36.607,9.7,40.837,24.482l21.557,75.327C2539.342,2941.794,2520.238,2960.37,2494.512,2960.37z"/>
					<path style="fill:#91B3FA;" d="M2064.256,2863.577c-1.828,0-3.322-1.47-3.35-3.302c-0.026-1.853,1.452-3.375,3.302-3.401
						l38.499-0.563c1.802-0.023,3.373,1.453,3.401,3.302c0.026,1.853-1.452,3.375-3.302,3.401l-38.499,0.563H2064.256z"/>
					<path style="fill:#91B3FA;" d="M1557.651,2934.612c-0.177,0-0.354-0.013-0.534-0.043c-1.828-0.291-3.073-2.01-2.781-3.836
						l5.492-34.399c2.975-18.636,18.83-32.36,37.699-32.639l408.331-5.97c1.82-0.092,3.375,1.453,3.401,3.302
						c0.026,1.853-1.452,3.375-3.302,3.401l-408.331,5.97c-15.606,0.229-28.718,11.58-31.179,26.989l-5.492,34.399
						C1560.693,2933.437,1559.268,2934.612,1557.651,2934.612z"/>
				</g>
			</g>
			<g>
				
					<linearGradient id="SVGID_00000149343279997046021300000005335303525052542601_" gradientUnits="userSpaceOnUse" x1="2142.9634" y1="659.967" x2="1598.6938" y2="2699.6499">
					<stop  offset="0" style="stop-color:#E1473D"/>
					<stop  offset="1" style="stop-color:#E9605A"/>
				</linearGradient>
				<path style="fill:url(#SVGID_00000149343279997046021300000005335303525052542601_);" d="M2151.372,1408.706h-374.749
					c-5.425,0-9.823-4.398-9.823-9.823v-136.462c0-5.425,4.398-9.823,9.823-9.823h374.749c5.425,0,9.823,4.398,9.823,9.823v136.462
					C2161.196,1404.308,2156.798,1408.706,2151.372,1408.706z"/>
				
					<linearGradient id="SVGID_00000130614795265862417670000004553281422478947515_" gradientUnits="userSpaceOnUse" x1="1417.1652" y1="1480.084" x2="2470.9587" y2="255.403">
					<stop  offset="0" style="stop-color:#4F52FF"/>
					<stop  offset="1" style="stop-color:#4042E2"/>
				</linearGradient>
				<path style="fill:url(#SVGID_00000130614795265862417670000004553281422478947515_);" d="M1481.304,1701.358h-374.75
					c-5.425,0-9.823-4.398-9.823-9.823v-136.462c0-5.425,4.398-9.823,9.823-9.823h374.75c5.425,0,9.823,4.398,9.823,9.823v136.462
					C1491.127,1696.96,1486.729,1701.358,1481.304,1701.358z"/>
				
					<linearGradient id="SVGID_00000168801885620034215260000016451413895196041377_" gradientUnits="userSpaceOnUse" x1="1946.6202" y1="1679.3129" x2="2428.873" y2="416.9464">
					<stop  offset="0" style="stop-color:#4F52FF"/>
					<stop  offset="1" style="stop-color:#4042E2"/>
				</linearGradient>
				<path style="fill:url(#SVGID_00000168801885620034215260000016451413895196041377_);" d="M2154.256,1704.331h-374.75
					c-5.425,0-9.823-4.398-9.823-9.823v-136.462c0-5.425,4.398-9.823,9.823-9.823h374.75c5.425,0,9.823,4.398,9.823,9.823v136.462
					C2164.079,1699.933,2159.681,1704.331,2154.256,1704.331z"/>
				<path style="fill:#91B3FA;" d="M2806.475,1704.331h-374.75c-5.425,0-9.823-4.398-9.823-9.823v-136.462
					c0-5.425,4.398-9.823,9.823-9.823h374.75c5.425,0,9.823,4.398,9.823,9.823v136.462
					C2816.298,1699.933,2811.9,1704.331,2806.475,1704.331z"/>
				
					<linearGradient id="SVGID_00000137821439798746920630000004324788640081267633_" gradientUnits="userSpaceOnUse" x1="1654.3831" y1="1681.1561" x2="2708.1768" y2="456.4749">
					<stop  offset="0" style="stop-color:#4F52FF"/>
					<stop  offset="1" style="stop-color:#4042E2"/>
				</linearGradient>
				<path style="fill:url(#SVGID_00000137821439798746920630000004324788640081267633_);" d="M1689.606,1936.035h-374.75
					c-5.425,0-9.823-4.398-9.823-9.823v-136.462c0-5.425,4.398-9.823,9.823-9.823h374.75c5.425,0,9.823,4.398,9.823,9.823v136.462
					C1699.429,1931.637,1695.031,1936.035,1689.606,1936.035z"/>
				<path style="fill:#91B3FA;" d="M3014.777,1939.008h-374.75c-5.425,0-9.823-4.398-9.823-9.823v-136.462
					c0-5.425,4.398-9.823,9.823-9.823h374.75c5.425,0,9.823,4.398,9.823,9.823v136.462
					C3024.6,1934.61,3020.202,1939.008,3014.777,1939.008z"/>
				
					<linearGradient id="SVGID_00000028311083340375439210000011766185483849254842_" gradientUnits="userSpaceOnUse" x1="1773.8824" y1="1771.6912" x2="2827.6763" y2="547.0099">
					<stop  offset="0" style="stop-color:#4F52FF"/>
					<stop  offset="1" style="stop-color:#4042E2"/>
				</linearGradient>
				<path style="fill:url(#SVGID_00000028311083340375439210000011766185483849254842_);" d="M1692.421,2162.177h-374.75
					c-5.425,0-9.823-4.398-9.823-9.823v-136.462c0-5.425,4.398-9.823,9.823-9.823h374.75c5.425,0,9.823,4.398,9.823,9.823v136.462
					C1702.244,2157.779,1697.846,2162.177,1692.421,2162.177z"/>
				
					<linearGradient id="SVGID_00000040568856299342888490000015141422556497478308_" gradientUnits="userSpaceOnUse" x1="2360.9248" y1="312.7083" x2="2222.7019" y2="1653.4672">
					<stop  offset="0" style="stop-color:#FF928E"/>
					<stop  offset="1" style="stop-color:#FE7062"/>
				</linearGradient>
				<path style="fill:url(#SVGID_00000040568856299342888490000015141422556497478308_);" d="M2365.373,2165.15h-374.75
					c-5.425,0-9.823-4.398-9.823-9.823v-136.462c0-5.425,4.398-9.823,9.823-9.823h374.75c5.425,0,9.823,4.398,9.823,9.823v136.462
					C2375.196,2160.752,2370.798,2165.15,2365.373,2165.15z"/>
				<path style="fill:#91B3FA;" d="M3017.591,2165.15h-374.75c-5.425,0-9.823-4.398-9.823-9.823v-136.462
					c0-5.425,4.398-9.823,9.823-9.823h374.75c5.425,0,9.823,4.398,9.823,9.823v136.462
					C3027.414,2160.752,3023.016,2165.15,3017.591,2165.15z"/>
				
					<linearGradient id="SVGID_00000013879487139719228270000018160154593462837924_" gradientUnits="userSpaceOnUse" x1="1887.7404" y1="1857.3738" x2="2941.5342" y2="632.6926">
					<stop  offset="0" style="stop-color:#4F52FF"/>
					<stop  offset="1" style="stop-color:#4042E2"/>
				</linearGradient>
				<path style="fill:url(#SVGID_00000013879487139719228270000018160154593462837924_);" d="M1689.606,2383.452h-374.75
					c-5.425,0-9.823-4.398-9.823-9.823v-136.462c0-5.425,4.398-9.823,9.823-9.823h374.75c5.425,0,9.823,4.398,9.823,9.823v136.462
					C1699.429,2379.055,1695.031,2383.452,1689.606,2383.452z"/>
				
					<linearGradient id="SVGID_00000006674595200715666120000004047094218648615311_" gradientUnits="userSpaceOnUse" x1="2381.2532" y1="309.4969" x2="2243.0303" y2="1650.2557">
					<stop  offset="0" style="stop-color:#FF928E"/>
					<stop  offset="1" style="stop-color:#FE7062"/>
				</linearGradient>
				<path style="fill:url(#SVGID_00000006674595200715666120000004047094218648615311_);" d="M2362.558,2386.425h-374.75
					c-5.425,0-9.823-4.398-9.823-9.823V2240.14c0-5.425,4.398-9.823,9.823-9.823h374.75c5.425,0,9.823,4.398,9.823,9.823v136.462
					C2372.381,2382.027,2367.983,2386.425,2362.558,2386.425z"/>
				<path style="fill:#91B3FA;" d="M3014.777,2386.425h-374.75c-5.425,0-9.823-4.398-9.823-9.823V2240.14
					c0-5.425,4.398-9.823,9.823-9.823h374.75c5.425,0,9.823,4.398,9.823,9.823v136.462
					C3024.6,2382.027,3020.202,2386.425,3014.777,2386.425z"/>
				<g>
					<path style="fill:#FFFFFF;" d="M1318.094,1516.263c-4.66,0-8.437-3.777-8.437-8.437v-53.995c0-2.248,0.896-4.403,2.492-5.985
						c1.595-1.585,3.718-2.396,6.005-2.452l531.159,3.704c4.66,0.033,8.41,3.836,8.377,8.496c-0.033,4.64-3.803,8.377-8.437,8.377
						c-0.02,0-0.04,0-0.059,0l-522.662-3.645v45.499C1326.531,1512.486,1322.754,1516.263,1318.094,1516.263z"/>
					<polygon style="fill:#FFFFFF;" points="1292.785,1504.452 1343.405,1504.452 1318.095,1536.511 					"/>
				</g>
				<g>
					<path style="fill:#FFFFFF;" d="M2597.111,1516.263c-4.66,0-8.437-3.777-8.437-8.437v-45.499l-522.662,3.645
						c-0.02,0-0.04,0-0.059,0c-4.634,0-8.404-3.737-8.437-8.377c-0.033-4.66,3.718-8.463,8.377-8.496l531.158-3.704
						c2.234,0.089,4.409,0.867,6.005,2.452c1.595,1.582,2.491,3.737,2.491,5.985v53.995
						C2605.548,1512.486,2601.771,1516.263,2597.111,1516.263z"/>
					<polygon style="fill:#FFFFFF;" points="2622.063,1504.452 2571.442,1504.452 2596.752,1536.511 					"/>
				</g>
				<g>
					<polygon style="fill:#FFFFFF;" points="1940.73,1511.201 1991.351,1511.201 1966.04,1543.261 					"/>
					<path style="fill:#FFFFFF;" d="M1966.873,1528.918c-4.512,0-8.256-3.573-8.424-8.12l-2.884-77.071
						c-0.175-4.657,3.457-8.572,8.114-8.746c4.65-0.056,8.575,3.457,8.747,8.114l2.884,77.071c0.175,4.657-3.457,8.572-8.114,8.746
						C1967.088,1528.915,1966.982,1528.918,1966.873,1528.918z"/>
				</g>
				<g>
					<polygon style="fill:#FFFFFF;" points="1264.22,1886.165 1265.68,1835.566 1296.996,1861.79 					"/>
					<path style="fill:#FFFFFF;" d="M1172.981,1870.608c-2.221,0-4.354-0.877-5.935-2.439c-1.602-1.585-2.501-3.744-2.501-5.998
						v-145.113c0-4.66,3.777-8.437,8.437-8.437s8.437,3.777,8.437,8.437v136.587l89.341-0.933c0.03,0,0.063,0,0.092,0
						c4.617,0,8.384,3.721,8.434,8.348c0.049,4.66-3.691,8.476-8.348,8.526l-97.867,1.022
						C1173.041,1870.608,1173.011,1870.608,1172.981,1870.608z"/>
				</g>
				<g>
					<polygon style="fill:#FFFFFF;" points="1257.471,2105.522 1258.93,2054.922 1290.247,2081.146 					"/>
					<path style="fill:#FFFFFF;" d="M1166.232,2089.965c-2.221,0-4.354-0.877-5.935-2.439c-1.602-1.585-2.501-3.744-2.501-5.998
						v-145.113c0-4.66,3.777-8.437,8.437-8.437c4.66,0,8.437,3.777,8.437,8.437v136.587l89.341-0.933c0.03,0,0.063,0,0.092,0
						c4.617,0,8.384,3.721,8.434,8.348c0.049,4.66-3.691,8.476-8.348,8.526l-97.867,1.022
						C1166.291,2089.965,1166.262,2089.965,1166.232,2089.965z"/>
				</g>
				<g>
					<polygon style="fill:#FFFFFF;" points="1257.471,2324.878 1258.93,2274.279 1290.247,2300.503 					"/>
					<path style="fill:#FFFFFF;" d="M1166.232,2309.321c-2.221,0-4.354-0.877-5.935-2.439c-1.602-1.585-2.501-3.744-2.501-5.998
						v-145.113c0-4.66,3.777-8.437,8.437-8.437c4.66,0,8.437,3.777,8.437,8.437v136.587l89.341-0.933c0.03,0,0.063,0,0.092,0
						c4.617,0,8.384,3.721,8.434,8.348c0.049,4.66-3.691,8.476-8.348,8.526l-97.867,1.021
						C1166.291,2309.321,1166.262,2309.321,1166.232,2309.321z"/>
				</g>
				<g>
					<polygon style="fill:#FFFFFF;" points="1929.039,1889.54 1930.499,1838.941 1961.815,1865.165 					"/>
					<path style="fill:#FFFFFF;" d="M1837.8,1873.983c-2.221,0-4.354-0.877-5.935-2.439c-1.602-1.585-2.501-3.744-2.501-5.998
						v-145.113c0-4.66,3.777-8.437,8.437-8.437s8.437,3.777,8.437,8.437v136.587l89.341-0.933c0.03,0,0.063,0,0.092,0
						c4.617,0,8.384,3.721,8.433,8.348c0.049,4.66-3.691,8.476-8.348,8.526l-97.867,1.022
						C1837.86,1873.983,1837.83,1873.983,1837.8,1873.983z"/>
				</g>
				<g>
					<polygon style="fill:#FFFFFF;" points="1922.29,2108.897 1923.749,2058.297 1955.066,2084.521 					"/>
					<path style="fill:#FFFFFF;" d="M1831.051,2093.34c-2.221,0-4.354-0.877-5.935-2.439c-1.602-1.585-2.501-3.744-2.501-5.998
						V1939.79c0-4.66,3.777-8.437,8.437-8.437c4.66,0,8.437,3.777,8.437,8.437v136.587l89.341-0.933
						c4.541-0.036,8.476,3.691,8.526,8.348c0.049,4.66-3.691,8.476-8.348,8.526l-97.867,1.022
						C1831.11,2093.34,1831.081,2093.34,1831.051,2093.34z"/>
				</g>
				<g>
					<polygon style="fill:#FFFFFF;" points="1922.29,2328.253 1923.749,2277.654 1955.066,2303.878 					"/>
					<path style="fill:#FFFFFF;" d="M1831.051,2312.696c-2.221,0-4.354-0.877-5.935-2.439c-1.602-1.585-2.501-3.744-2.501-5.998
						v-145.113c0-4.66,3.777-8.437,8.437-8.437c4.66,0,8.437,3.777,8.437,8.437v136.587l89.341-0.933
						c4.541,0.043,8.476,3.691,8.526,8.348c0.049,4.66-3.691,8.476-8.348,8.526l-97.867,1.022
						C1831.11,2312.696,1831.081,2312.696,1831.051,2312.696z"/>
				</g>
				<g>
					<polygon style="fill:#FFFFFF;" points="2576.985,1886.165 2578.444,1835.566 2609.76,1861.79 					"/>
					<path style="fill:#FFFFFF;" d="M2485.746,1870.608c-2.221,0-4.354-0.877-5.935-2.439c-1.602-1.585-2.501-3.744-2.501-5.998
						v-145.113c0-4.66,3.777-8.437,8.437-8.437c4.66,0,8.437,3.777,8.437,8.437v136.587l89.341-0.933c0.03,0,0.063,0,0.092,0
						c4.617,0,8.384,3.721,8.434,8.348c0.049,4.66-3.691,8.476-8.348,8.526l-97.867,1.022
						C2485.805,1870.608,2485.775,1870.608,2485.746,1870.608z"/>
				</g>
				<g>
					<polygon style="fill:#FFFFFF;" points="2570.235,2105.522 2571.694,2054.922 2603.011,2081.146 					"/>
					<path style="fill:#FFFFFF;" d="M2478.996,2089.965c-2.221,0-4.354-0.877-5.936-2.439c-1.602-1.585-2.501-3.744-2.501-5.998
						v-145.113c0-4.66,3.777-8.437,8.437-8.437c4.66,0,8.437,3.777,8.437,8.437v136.587l89.341-0.933c0.03,0,0.063,0,0.092,0
						c4.617,0,8.384,3.721,8.434,8.348c0.05,4.66-3.691,8.476-8.348,8.526l-97.867,1.022
						C2479.056,2089.965,2479.026,2089.965,2478.996,2089.965z"/>
				</g>
				<g>
					<polygon style="fill:#FFFFFF;" points="2570.235,2324.878 2571.694,2274.279 2603.011,2300.503 					"/>
					<path style="fill:#FFFFFF;" d="M2478.996,2309.321c-2.221,0-4.354-0.877-5.936-2.439c-1.602-1.585-2.501-3.744-2.501-5.998
						v-145.113c0-4.66,3.777-8.437,8.437-8.437c4.66,0,8.437,3.777,8.437,8.437v136.587l89.341-0.933c0.03,0,0.063,0,0.092,0
						c4.617,0,8.384,3.721,8.434,8.348c0.05,4.66-3.691,8.476-8.348,8.526l-97.867,1.021
						C2479.056,2309.321,2479.026,2309.321,2478.996,2309.321z"/>
				</g>
			</g>
		</g>
		<g>
			
				<linearGradient id="SVGID_00000097465187599040500200000014107114002020171964_" gradientUnits="userSpaceOnUse" x1="-1062.0308" y1="1247.5868" x2="-1176.4851" y2="1598.4133" gradientTransform="matrix(0.9167 -0.3997 0.3997 0.9167 2974.365 305.8584)">
				<stop  offset="0" style="stop-color:#C4421B"/>
				<stop  offset="1" style="stop-color:#5C0E16"/>
			</linearGradient>
			<path style="fill:url(#SVGID_00000097465187599040500200000014107114002020171964_);" d="M2424.54,1989.188
				c0,0-56.38,219.045,161.689,321.749l52.519-28.969c0,0-179.152-123.258-191.024-278.601l32.076-71.56l6.171-51.604
				L2424.54,1989.188z"/>
			
				<linearGradient id="SVGID_00000080924478349186500890000003636642319846910854_" gradientUnits="userSpaceOnUse" x1="2510.8391" y1="343.601" x2="2373.447" y2="1676.3018">
				<stop  offset="0" style="stop-color:#FF928E"/>
				<stop  offset="1" style="stop-color:#FE7062"/>
			</linearGradient>
			<path style="fill:url(#SVGID_00000080924478349186500890000003636642319846910854_);" d="M2609.496,1947.926h-506.627
				c-5.425,0-9.823-4.398-9.823-9.823v-188.661c0-5.425,4.398-9.823,9.823-9.823h506.627c5.425,0,9.823,4.398,9.823,9.823v188.661
				C2619.319,1943.528,2614.921,1947.926,2609.496,1947.926z"/>
			<g>
				
					<linearGradient id="SVGID_00000066511063654063571290000011512702824280721820_" gradientUnits="userSpaceOnUse" x1="2894.2104" y1="2912.803" x2="3243.4348" y2="2597.0151">
					<stop  offset="0" style="stop-color:#C4421B"/>
					<stop  offset="1" style="stop-color:#5C0E16"/>
				</linearGradient>
				<path style="fill:url(#SVGID_00000066511063654063571290000011512702824280721820_);" d="M2676.935,2797.418
					c0,0,112.803,245.857,171.987,347.69c0,0,11.754,64.075,0,84.225l-10.018,4.453l46.752-1.392c0,0,4.153-86.188,0.91-91.002
					c-3.244-4.814-9.731-4.499-9.731-4.499s-20.047-158.824-78.104-192.721l-56.265-193.793L2676.935,2797.418z"/>
				
					<linearGradient id="SVGID_00000111191053994441873340000015759694717211642243_" gradientUnits="userSpaceOnUse" x1="4289.7202" y1="-1312.6592" x2="4781.0801" y2="-1902.2908" gradientTransform="matrix(1 0 0 1 2347.936 0)">
					<stop  offset="0" style="stop-color:#09005D"/>
					<stop  offset="1" style="stop-color:#1A0F91"/>
				</linearGradient>
				<path style="fill:url(#SVGID_00000111191053994441873340000015759694717211642243_);" d="M2818.937,3245.856
					c-0.069,1.128,36.507,0.612,56.377,0.25c7.336-0.135,13.591-5.291,15.155-12.46l15.005-78.832
					c1.426-7.491-3.331-14.768-10.765-16.468l-8.375-1.914c0,0-11.948,16.39-8.187,31.821c3.761,15.431,7.108,55.403-2.396,60.061
					c-9.504,4.658-36.845,5.471-36.845,5.471S2819.562,3235.704,2818.937,3245.856z"/>
				
					<linearGradient id="SVGID_00000142894632446604189140000012120194749197589888_" gradientUnits="userSpaceOnUse" x1="4167.0542" y1="-1414.8923" x2="4658.4155" y2="-2004.5249" gradientTransform="matrix(1 0 0 1 2347.936 0)">
					<stop  offset="0" style="stop-color:#09005D"/>
					<stop  offset="1" style="stop-color:#1A0F91"/>
				</linearGradient>
				<path style="fill:url(#SVGID_00000142894632446604189140000012120194749197589888_);" d="M2570.018,3247.287
					c-3.699,2.108-2.174,7.757,2.084,7.713c33.25-0.334,107.758-1.386,114.378-4.139c8.548-3.554-3.115-34.27-15.389-44.665
					l-67.773,22.119L2570.018,3247.287z"/>
				
					<linearGradient id="SVGID_00000124156158612061134650000009892408536976469694_" gradientUnits="userSpaceOnUse" x1="2661.4055" y1="2931.1816" x2="2995.769" y2="2522.5149">
					<stop  offset="0" style="stop-color:#C4421B"/>
					<stop  offset="1" style="stop-color:#5C0E16"/>
				</linearGradient>
				<path style="fill:url(#SVGID_00000124156158612061134650000009892408536976469694_);" d="M2548.98,2781.738
					c0,0,72.896,352.645,93.517,421.435l-48.782,30.613c0,0,24.446-4.158,42.574-5.471s34.802-22.119,34.802-22.119l-5.844-9.322
					c0,0-18.28-350.725-13.83-390.55L2548.98,2781.738z"/>
				
					<linearGradient id="SVGID_00000063593036568534307990000002704035198269978270_" gradientUnits="userSpaceOnUse" x1="2352.4312" y1="2201.4653" x2="2486.1768" y2="1837.3809">
					<stop  offset="0" style="stop-color:#C4421B"/>
					<stop  offset="1" style="stop-color:#5C0E16"/>
				</linearGradient>
				<path style="fill:url(#SVGID_00000063593036568534307990000002704035198269978270_);" d="M2368.027,1959.192
					c0,0-10.055,183.443,156.958,277.183l-40.209,91.706c0,0-151.208-91.459-145.617-340.902c0.16-7.159-2.422-14.11-7.097-19.534
					l-32.137-37.282c-12.244-14.205-16.82-33.474-12.268-51.667l4.23-16.909c1.416-5.661,7.864-8.385,12.909-5.454l3.361,1.952
					c10.699,6.214,19.173,15.634,24.225,26.928l15.78,35.274c5.894,13.176,19.485,21.176,33.866,19.934l9.757-0.842
					L2368.027,1959.192z"/>
				
					<linearGradient id="SVGID_00000033328827486512516610000007446164646226610619_" gradientUnits="userSpaceOnUse" x1="3434.2251" y1="1231.6603" x2="2887.5203" y2="1960.6">
					<stop  offset="0" style="stop-color:#4F52FF"/>
					<stop  offset="1" style="stop-color:#4042E2"/>
				</linearGradient>
				<path style="fill:url(#SVGID_00000033328827486512516610000007446164646226610619_);" d="M2519.173,2222.628
					c27.941,7.749,122.601,32.65,181.696,31.632l-36.283,204.75l2.888,33.396l-118.298-0.53c0,0-33.302-77.34-59.576-115.898
					c-7.589-11.136-1.941-24.419,2.36-37.19l-5.909-3.934c-6.013-4.003-8.621-11.524-6.377-18.391l28.808-88.138
					C2509.977,2223.882,2514.655,2221.375,2519.173,2222.628z"/>
				
					<linearGradient id="SVGID_00000069358764383090732620000003317633744428775557_" gradientUnits="userSpaceOnUse" x1="93.2329" y1="2456.1187" x2="484.841" y2="2897.7651" gradientTransform="matrix(1 0 0 1 2347.936 0)">
					<stop  offset="0" style="stop-color:#4F52FF"/>
					<stop  offset="1" style="stop-color:#4042E2"/>
				</linearGradient>
				<path style="fill:url(#SVGID_00000069358764383090732620000003317633744428775557_);" d="M2539.696,2474.401l2.327,20.232
					c0,0-33.431,100.117,16.715,333.954c0,0,108.606,30.768,197.868-42.856c0,0-25.179-220.706-32.057-230.987
					c-34.256-51.206-57.077-62.338-57.077-62.338l-1.03-22.103C2666.444,2470.303,2570.972,2487.564,2539.696,2474.401z"/>
				
					<linearGradient id="SVGID_00000093150771784716818320000002180580060325362326_" gradientUnits="userSpaceOnUse" x1="238.0626" y1="2208.9741" x2="312.788" y2="2208.9741" gradientTransform="matrix(1 0 0 1 2347.936 0)">
					<stop  offset="0" style="stop-color:#F9B776"/>
					<stop  offset="1" style="stop-color:#F47960"/>
				</linearGradient>
				<path style="fill:url(#SVGID_00000093150771784716818320000002180580060325362326_);" d="M2586.004,2239.13
					c-0.415-0.548,24.698-75.817,24.698-75.817l35.97,3.263l14.052,85.389C2660.724,2251.965,2604.35,2263.344,2586.004,2239.13z"/>
				
					<linearGradient id="SVGID_00000137110332514851945870000016846668871344780208_" gradientUnits="userSpaceOnUse" x1="356.8242" y1="2112.408" x2="900.725" y2="2149.3931" gradientTransform="matrix(1 0 0 1 2347.936 0)">
					<stop  offset="0" style="stop-color:#C4421B"/>
					<stop  offset="1" style="stop-color:#5C0E16"/>
				</linearGradient>
				<path style="fill:url(#SVGID_00000137110332514851945870000016846668871344780208_);" d="M2638.06,2044.612
					c-2.398,1.493-76.865,32.268-60.866,109.578c0.946,4.568,3.994,8.441,8.255,10.341c10.927,4.874,34.453,13.22,62.592,10.361
					c39.01-3.964,64.572-72.038,63.485-91.847C2710.438,2063.235,2661.832,2029.81,2638.06,2044.612z"/>
				
					<linearGradient id="SVGID_00000151501711476567246440000009929191529944453810_" gradientUnits="userSpaceOnUse" x1="2704.6467" y1="2538.3706" x2="2723.9082" y2="2133.8787">
					<stop  offset="0" style="stop-color:#09005D"/>
					<stop  offset="1" style="stop-color:#1A0F91"/>
				</linearGradient>
				<path style="fill:url(#SVGID_00000151501711476567246440000009929191529944453810_);" d="M2660.724,2014.556
					c-1.958,0.257-43.034,14.563-22.664,44.328c20.369,29.764,28.01,47.285,18.376,60.356c-8.777,11.908-28.222,5.121-26.525,29.895
					c0.339,4.959-1.805,9.773-5.921,12.559c-18.323,12.404-63.027,50.579-18.736,105.024c3.6,4.425,4.342,10.534,1.564,15.517
					c-12.972,23.268-40.221,91.429,58.429,129.24c97.481,37.362,132.677-26.36,142.511-51.829c2.127-5.509,7.551-8.881,13.449-8.603
					c10.711,0.506,25.89-1.276,25.192-15.59c-0.424-8.695-5.848-16.486-12.26-22.733c-6.345-6.183-5.092-17.009,2.612-21.385
					c5.819-3.306,10.968-8.468,13.142-16.521c5.907-21.891-5.886-87.346-68.627-98.439c-5.233-0.926-10.714-5.832-11.476-11.092
					c-0.011-0.078-0.023-0.156-0.037-0.235c-0.841-5.087,0.88-10.288,5.037-13.338c10.018-7.349,22.866-22.145,12.431-45.872
					c-9.255-21.044-27.006-28.143-40.19-30.405c-7.741-1.328-12.831-8.649-11.199-16.333
					C2740.279,2038.163,2736.403,2004.634,2660.724,2014.556z"/>
			</g>
		</g>
	</g>
</g>
</svg>
