<?xml version="1.0" encoding="utf-8"?>
<!-- Generator: Adobe Illustrator 27.5.0, SVG Export Plug-In . SVG Version: 6.00 Build 0)  -->
<svg version="1.1" xmlns="http://www.w3.org/2000/svg" xmlns:xlink="http://www.w3.org/1999/xlink" x="0px" y="0px"
	 viewBox="0 0 3710 3710" style="enable-background:new 0 0 3710 3710;" xml:space="preserve">
<g id="Background">
	<g>
		<g>
			<rect style="fill:#FFFFFF;" width="3710" height="3710"/>
		</g>
	</g>
</g>
<g id="Illustration">
	<g>
		<linearGradient id="SVGID_1_" gradientUnits="userSpaceOnUse" x1="3428.739" y1="3619.0376" x2="1371.1506" y2="1398.1486">
			<stop  offset="0" style="stop-color:#DAE3FE"/>
			<stop  offset="1" style="stop-color:#E9EFFD"/>
		</linearGradient>
		<path style="fill:url(#SVGID_1_);" d="M3142,2353.436c-282.728,660.843-1029.037,944.69-1613.782,896.294
			c-159.659-13.214-480.897-39.802-731.723-276.999c-481.693-455.522-407.507-1407.69,53.611-1968.273
			c59.383-72.191,470.419-555.867,1110.943-549.393c468.957,4.74,798.113,269.648,838.137,302.65
			c50.561,41.691,162.079,140.762,262.583,297.931C3297.919,1424.939,3318.677,1940.475,3142,2353.436z"/>
		<g>
			<g>
				<g>
					<path style="fill:#91B3FA;" d="M1216.26,2287.386c-0.628,0-1.263-0.168-1.837-0.52c-1.655-1.016-2.173-3.181-1.154-4.835
						c2.465-4.015,4.999-8.001,7.594-11.951c1.068-1.62,3.244-2.07,4.872-1.006c1.62,1.066,2.07,3.246,1.006,4.868
						c-2.561,3.892-5.054,7.816-7.484,11.769C1218.594,2286.79,1217.441,2287.386,1216.26,2287.386z"/>
					<path style="fill:#91B3FA;" d="M2063.925,2414.631c-1.565,0-2.99-1.054-3.402-2.638c-2.245-8.717-4.782-17.466-7.536-26.004
						c-0.594-1.847,0.422-3.828,2.269-4.424c1.844-0.597,3.828,0.421,4.425,2.268c2.794,8.67,5.369,17.553,7.652,26.402
						c0.484,1.881-0.649,3.799-2.527,4.283C2064.512,2414.593,2064.217,2414.631,2063.925,2414.631z M2040.738,2346.938
						c-1.363,0-2.657-0.795-3.231-2.123c-3.567-8.26-7.422-16.513-11.463-24.528c-0.872-1.734-0.175-3.847,1.559-4.72
						c1.737-0.879,3.845-0.177,4.72,1.559c4.103,8.136,8.016,16.515,11.638,24.902c0.769,1.782-0.051,3.852-1.833,4.621
						C2041.675,2346.844,2041.201,2346.938,2040.738,2346.938z M2007.378,2283.63c-1.167,0-2.311-0.58-2.977-1.641
						c-4.789-7.603-9.867-15.167-15.092-22.485c-1.13-1.579-0.762-3.775,0.817-4.904c1.579-1.128,3.773-0.76,4.903,0.819
						c5.304,7.427,10.461,15.106,15.318,22.822c1.037,1.645,0.542,3.814-1.099,4.849
						C2008.666,2283.455,2008.017,2283.63,2007.378,2283.63z M1249.887,2239.705c-0.772,0-1.552-0.254-2.201-0.776
						c-1.51-1.217-1.751-3.43-0.536-4.942c5.719-7.115,11.728-14.148,17.852-20.904c1.305-1.438,3.529-1.548,4.968-0.242
						c1.438,1.304,1.545,3.527,0.244,4.966c-6.035,6.654-11.951,13.58-17.584,20.585
						C1251.937,2239.257,1250.917,2239.705,1249.887,2239.705z M1964.743,2226.146c-0.982,0-1.96-0.41-2.657-1.214
						c-5.908-6.818-12.071-13.526-18.312-19.941c-1.353-1.39-1.322-3.617,0.069-4.971c1.387-1.353,3.612-1.327,4.971,0.069
						c6.334,6.509,12.589,13.319,18.587,20.24c1.27,1.466,1.112,3.687-0.354,4.959
						C1966.38,2225.863,1965.56,2226.146,1964.743,2226.146z M1298.901,2187.575c-0.954,0-1.905-0.386-2.599-1.146
						c-1.308-1.435-1.205-3.658,0.23-4.966c6.743-6.149,13.753-12.179,20.839-17.926c1.514-1.22,3.725-0.989,4.944,0.517
						c1.226,1.509,0.992,3.722-0.515,4.946c-6.979,5.659-13.887,11.602-20.53,17.658
						C1300.597,2187.271,1299.749,2187.575,1298.901,2187.575z M1913.905,2175.808c-0.803,0-1.614-0.273-2.273-0.834
						c-6.883-5.831-14-11.516-21.155-16.895c-1.552-1.165-1.864-3.369-0.7-4.921c1.171-1.552,3.375-1.868,4.923-0.699
						c7.265,5.46,14.491,11.23,21.478,17.152c1.483,1.255,1.665,3.472,0.409,4.954
						C1915.893,2175.386,1914.901,2175.808,1913.905,2175.808z M1355.287,2143.496c-1.136,0-2.252-0.549-2.928-1.565
						c-1.078-1.617-0.639-3.799,0.975-4.875c7.604-5.067,15.452-9.971,23.325-14.575c1.675-0.978,3.824-0.417,4.81,1.26
						c0.979,1.677,0.415,3.83-1.26,4.81c-7.755,4.535-15.487,9.365-22.974,14.356
						C1356.633,2143.305,1355.956,2143.496,1355.287,2143.496z M1855.941,2133.902c-0.625,0-1.257-0.167-1.83-0.515
						c-7.68-4.69-15.586-9.208-23.506-13.429c-1.717-0.911-2.365-3.042-1.452-4.755c0.91-1.711,3.035-2.367,4.758-1.449
						c8.04,4.283,16.07,8.869,23.867,13.631c1.655,1.013,2.18,3.176,1.167,4.832
						C1858.282,2133.303,1857.125,2133.902,1855.941,2133.902z M1417.728,2108.5c-1.328,0-2.599-0.755-3.193-2.038
						c-0.817-1.763-0.052-3.852,1.713-4.667c8.267-3.831,16.778-7.469,25.285-10.813c1.806-0.712,3.849,0.175,4.559,1.986
						c0.711,1.808-0.179,3.847-1.984,4.558c-8.384,3.294-16.76,6.876-24.907,10.648
						C1418.724,2108.396,1418.223,2108.5,1417.728,2108.5z M1792.201,2101.435c-0.453,0-0.91-0.087-1.349-0.271
						c-8.267-3.44-16.778-6.689-25.292-9.656c-1.833-0.639-2.801-2.644-2.163-4.477c0.639-1.832,2.637-2.805,4.477-2.163
						c8.645,3.012,17.282,6.31,25.676,9.803c1.795,0.747,2.643,2.803,1.895,4.597
						C1794.886,2100.62,1793.578,2101.435,1792.201,2101.435z M1484.801,2083.552c-1.528,0-2.935-1.008-3.378-2.551
						c-0.532-1.866,0.549-3.813,2.413-4.346c8.775-2.51,17.739-4.789,26.651-6.779c1.888-0.414,3.773,0.771,4.195,2.666
						c0.426,1.895-0.769,3.773-2.664,4.197c-8.778,1.959-17.608,4.204-26.246,6.676
						C1485.45,2083.507,1485.124,2083.552,1484.801,2083.552z M1724.226,2079.123c-0.278,0-0.56-0.034-0.841-0.103
						c-8.717-2.139-17.622-4.05-26.469-5.678c-1.912-0.352-3.172-2.185-2.822-4.094c0.354-1.907,2.18-3.169,4.092-2.82
						c8.984,1.655,18.027,3.593,26.874,5.764c1.885,0.462,3.038,2.365,2.578,4.252
						C1727.244,2078.049,1725.805,2079.123,1724.226,2079.123z M1554.919,2069.243c-1.748,0-3.261-1.301-3.485-3.08
						c-0.24-1.928,1.126-3.684,3.052-3.924c9.053-1.129,18.261-2.007,27.369-2.607c1.912-0.12,3.608,1.339,3.739,3.277
						c0.127,1.938-1.339,3.612-3.279,3.74c-8.971,0.591-18.041,1.454-26.957,2.566
						C1555.21,2069.234,1555.063,2069.243,1554.919,2069.243z M1653.638,2067.444c-0.103,0-0.206-0.003-0.312-0.014
						c-8.936-0.784-18.031-1.317-27.025-1.579c-1.94-0.057-3.468-1.676-3.412-3.617c0.058-1.905,1.62-3.412,3.512-3.412
						c0.038,0,0.072,0,0.106,0.002c9.129,0.266,18.36,0.807,27.438,1.603c1.933,0.17,3.364,1.874,3.193,3.809
						C1656.975,2066.065,1655.44,2067.444,1653.638,2067.444z"/>
					<path style="fill:#91B3FA;" d="M2074.952,2472.104c-1.744,0-3.258-1.296-3.485-3.073c-0.587-4.607-1.239-9.211-1.964-13.808
						c-0.305-1.917,1.006-3.718,2.922-4.02c1.909-0.309,3.721,1.008,4.02,2.925c0.738,4.666,1.404,9.338,1.998,14.017
						c0.244,1.926-1.119,3.686-3.045,3.931C2075.248,2472.096,2075.1,2472.104,2074.952,2472.104z"/>
				</g>
				<g>
					<path style="fill:#91B3FA;" d="M1979.254,2819.029c-0.759,0-1.524-0.246-2.17-0.752c-1.524-1.2-1.792-3.409-0.59-4.937
						c2.88-3.663,5.702-7.361,8.459-11.094c1.154-1.56,3.354-1.897,4.92-0.738c1.559,1.154,1.892,3.356,0.738,4.916
						c-2.805,3.792-5.668,7.544-8.59,11.262C1981.328,2818.569,1980.298,2819.029,1979.254,2819.029z"/>
					<path style="fill:#91B3FA;" d="M1611.191,2996.934h-0.017c-9.582-0.045-19.297-0.388-28.876-1.018
						c-1.94-0.129-3.406-1.802-3.279-3.74c0.131-1.938,1.83-3.397,3.739-3.277c9.438,0.623,19.009,0.959,28.45,1.004
						c1.94,0.009,3.509,1.59,3.498,3.533C1614.696,2995.37,1613.124,2996.934,1611.191,2996.934z M1657.737,2994.826
						c-1.792,0-3.323-1.363-3.495-3.182c-0.185-1.933,1.232-3.648,3.165-3.833c9.403-0.896,18.906-2.099,28.244-3.577
						c1.905-0.297,3.721,1.006,4.02,2.923c0.306,1.917-1.002,3.718-2.922,4.022c-9.479,1.5-19.129,2.721-28.677,3.632
						C1657.96,2994.821,1657.847,2994.826,1657.737,2994.826z M1536.246,2990.545c-0.192,0-0.388-0.016-0.584-0.048
						c-9.472-1.583-19.009-3.476-28.34-5.629c-1.892-0.438-3.073-2.324-2.637-4.216c0.439-1.892,2.331-3.061,4.216-2.637
						c9.194,2.122,18.587,3.988,27.922,5.546c1.912,0.319,3.207,2.132,2.887,4.046
						C1539.422,2989.328,1537.935,2990.545,1536.246,2990.545z M1731.803,2981.641c-1.559,0-2.98-1.045-3.395-2.623
						c-0.494-1.878,0.628-3.8,2.503-4.295c9.142-2.405,18.326-5.129,27.297-8.095c1.861-0.62,3.831,0.39,4.442,2.233
						s-0.391,3.831-2.231,4.441c-9.108,3.012-18.436,5.78-27.716,8.222C1732.4,2981.604,1732.101,2981.641,1731.803,2981.641z
						 M1463.289,2972.24c-0.374,0-0.755-0.06-1.126-0.187c-9.08-3.074-18.189-6.475-27.07-10.104
						c-1.799-0.735-2.661-2.788-1.926-4.585c0.738-1.797,2.784-2.654,4.583-1.924c8.751,3.576,17.722,6.925,26.665,9.953
						c1.84,0.623,2.825,2.619,2.204,4.458C1466.121,2971.314,1464.755,2972.24,1463.289,2972.24z M1802.769,2956.636
						c-1.346,0-2.63-0.776-3.214-2.082c-0.793-1.773,0.004-3.852,1.775-4.645c8.627-3.857,17.248-8.037,25.625-12.421
						c1.723-0.905,3.842-0.235,4.745,1.483c0.903,1.72,0.237,3.845-1.483,4.745c-8.504,4.453-17.258,8.696-26.016,12.613
						C1803.733,2956.537,1803.246,2956.636,1802.769,2956.636z M1394.235,2942.44c-0.556,0-1.123-0.132-1.648-0.412
						c-8.463-4.497-16.898-9.324-25.079-14.342c-1.655-1.016-2.173-3.181-1.157-4.835c1.016-1.66,3.186-2.171,4.837-1.159
						c8.054,4.944,16.366,9.697,24.701,14.129c1.713,0.912,2.365,3.04,1.452,4.753
						C1396.711,2941.764,1395.495,2942.44,1394.235,2942.44z M1868.743,2920.456c-1.143,0-2.262-0.556-2.939-1.581
						c-1.068-1.622-0.621-3.802,1.002-4.87c7.886-5.196,15.727-10.71,23.304-16.39c1.552-1.166,3.756-0.848,4.92,0.706
						c1.167,1.553,0.851,3.756-0.704,4.921c-7.687,5.764-15.648,11.36-23.654,16.633
						C1870.078,2920.269,1869.405,2920.456,1868.743,2920.456z M1330.929,2901.871c-0.742,0-1.49-0.235-2.129-0.719
						c-7.628-5.817-15.174-11.947-22.422-18.218c-1.469-1.27-1.627-3.491-0.357-4.959c1.27-1.471,3.488-1.627,4.957-0.359
						c7.137,6.178,14.57,12.215,22.085,17.943c1.545,1.177,1.84,3.383,0.663,4.928
						C1333.037,2901.394,1331.99,2901.871,1330.929,2901.871z M1928.098,2874.173c-0.951,0-1.899-0.383-2.592-1.14
						c-1.311-1.432-1.215-3.655,0.216-4.968c6.966-6.384,13.822-13.072,20.382-19.873c1.349-1.396,3.574-1.433,4.971-0.089
						c1.397,1.347,1.438,3.574,0.089,4.971c-6.657,6.904-13.619,13.691-20.691,20.175
						C1929.797,2873.867,1928.946,2874.173,1928.098,2874.173z M1275.021,2851.574c-0.934,0-1.864-0.369-2.554-1.1
						c-6.557-6.935-13.015-14.199-19.198-21.589c-1.246-1.488-1.05-3.706,0.439-4.952c1.497-1.244,3.711-1.044,4.951,0.441
						c6.094,7.281,12.459,14.438,18.916,21.27c1.336,1.411,1.27,3.636-0.141,4.969
						C1276.758,2851.255,1275.889,2851.574,1275.021,2851.574z M1227.874,2792.963c-1.126,0-2.228-0.537-2.908-1.538
						c-5.41-7.942-10.632-16.144-15.524-24.377c-0.992-1.669-0.443-3.826,1.226-4.817c1.668-0.992,3.828-0.448,4.817,1.226
						c4.82,8.107,9.966,16.187,15.291,24.013c1.095,1.603,0.68,3.79-0.927,4.884
						C1229.244,2792.765,1228.554,2792.963,1227.874,2792.963z M1190.693,2727.569c-1.325,0-2.595-0.752-3.189-2.031
						c-4.058-8.708-7.886-17.646-11.384-26.565c-0.711-1.808,0.182-3.849,1.988-4.558c1.806-0.702,3.849,0.18,4.556,1.99
						c3.447,8.785,7.22,17.588,11.213,26.164c0.82,1.761,0.058,3.852-1.703,4.671
						C1191.692,2727.464,1191.188,2727.569,1190.693,2727.569z M1164.578,2657.02c-1.535,0-2.946-1.016-3.382-2.57
						c-2.589-9.246-4.92-18.687-6.921-28.061c-0.408-1.898,0.803-3.766,2.702-4.173c1.885-0.414,3.766,0.803,4.171,2.704
						c1.974,9.232,4.267,18.529,6.818,27.635c0.525,1.869-0.566,3.809-2.438,4.333
						C1165.213,2656.977,1164.894,2657.02,1164.578,2657.02z"/>
					<path style="fill:#91B3FA;" d="M1150.227,2583.008c-1.768,0-3.292-1.33-3.491-3.129c-0.518-4.693-0.968-9.393-1.346-14.093
						c-0.155-1.936,1.287-3.631,3.224-3.785c2.002-0.163,3.632,1.287,3.787,3.222c0.371,4.631,0.814,9.259,1.325,13.884
						c0.213,1.929-1.178,3.667-3.107,3.881C1150.485,2583.001,1150.354,2583.008,1150.227,2583.008z"/>
				</g>
				<g>
					<path style="fill:#91B3FA;" d="M1255.704,2511.582c-0.361,2.356,0.812,4.684,2.922,5.794l60.2,31.662
						c2.473,31.668,10.013,63.171,22.838,93.239l-38.687,55.891c-1.358,1.96-1.321,4.565,0.09,6.488l48.279,65.768
						c1.412,1.922,3.888,2.737,6.162,2.03l64.915-20.165c24.846,21.244,52.64,37.877,82.113,49.724l12.172,66.92
						c0.427,2.346,2.294,4.162,4.65,4.524l80.644,12.365c2.359,0.362,4.684-0.812,5.793-2.922l31.663-60.199
						c31.668-2.472,63.17-10.014,93.238-22.839l55.892,38.689c1.96,1.357,4.565,1.321,6.487-0.09l65.768-48.281
						c1.922-1.411,2.737-3.886,2.03-6.163l-20.166-64.914c21.245-24.845,37.878-52.639,49.724-82.112l66.922-12.171
						c2.344-0.427,4.161-2.295,4.523-4.651l12.365-80.644c0.362-2.357-0.813-4.684-2.923-5.793l-60.199-31.662
						c-2.471-31.668-10.012-63.171-22.837-93.24l38.688-55.891c1.356-1.96,1.321-4.565-0.09-6.487l-48.282-65.77
						c-1.41-1.922-3.886-2.737-6.162-2.029l-64.915,20.166c-24.844-21.245-52.64-37.878-82.113-49.725l-12.171-66.919
						c-0.425-2.346-2.295-4.163-4.651-4.525l-80.644-12.365c-2.356-0.361-4.683,0.812-5.793,2.922l-31.663,60.198
						c-31.668,2.473-63.17,10.014-93.238,22.839l-55.892-38.689c-1.958-1.356-4.565-1.321-6.486,0.091l-65.768,48.281
						c-1.922,1.411-2.737,3.885-2.031,6.162l20.166,64.914c-21.244,24.845-37.876,52.64-49.724,82.112l-66.92,12.173
						c-2.346,0.426-4.162,2.294-4.525,4.651L1255.704,2511.582z"/>
					<g>
						<path style="fill:#BDD0FB;" d="M1615.904,2603.237c-17.43,0-34.959-5.819-49.416-17.758
							c-16.009-13.219-25.91-31.88-27.884-52.545c-1.971-20.666,4.223-40.861,17.444-56.868
							c27.283-33.045,76.366-37.728,109.41-10.442c16.009,13.219,25.91,31.88,27.884,52.545
							c1.971,20.666-4.223,40.861-17.444,56.868C1660.552,2593.623,1638.309,2603.237,1615.904,2603.237z M1616.031,2458.41
							c-19.366,0-38.585,8.306-51.854,24.372c-11.425,13.835-16.778,31.289-15.071,49.15c1.703,17.863,10.262,33.99,24.097,45.415
							l0,0c28.553,23.582,70.976,19.538,94.565-9.024c11.425-13.835,16.778-31.289,15.071-49.15
							c-1.703-17.863-10.261-33.99-24.097-45.415C1646.25,2463.439,1631.096,2458.41,1616.031,2458.41z"/>
					</g>
					<path style="fill:#BDD0FB;" d="M1618.132,2727.856c-10.31,0-20.684-0.786-31.066-2.379
						c-53.371-8.183-100.357-36.659-132.309-80.184l0,0c-6.568-8.947-12.397-18.415-17.399-28.249c0,0,0-0.005-0.003-0.007
						c-0.113-0.221-0.227-0.446-0.336-0.668c-0.089-0.177-0.179-0.352-0.264-0.527c-0.106-0.213-0.213-0.426-0.319-0.64
						c-0.316-0.639-0.628-1.279-0.941-1.921c-0.824-1.713-1.627-3.437-2.403-5.17l9.626-4.309
						c5.538,12.364,12.448,24.224,20.54,35.25l0,0c30.284,41.254,74.821,68.245,125.408,76c50.59,7.757,101.16-4.652,142.416-34.934
						c51.085-37.501,78.155-95.739,78.144-154.723c-0.007-39.345-12.061-79.025-37.078-113.102
						c-30.283-41.254-74.821-68.245-125.408-76c-50.58-7.757-101.16,4.652-142.416,34.934c-28,20.556-49.866,48.254-63.238,80.105
						l-9.723-4.082c14.107-33.612,37.181-62.84,66.719-84.523c43.525-31.954,96.882-45.051,150.257-36.858
						c53.371,8.183,100.357,36.659,132.309,80.184c26.394,35.953,39.113,77.816,39.12,119.33
						c0.01,62.23-28.55,123.673-82.446,163.238C1702.264,2714.355,1660.82,2727.856,1618.132,2727.856z"/>
				</g>
			</g>
			<g>
				<g>
					<path style="fill:#91B3FA;" d="M2074.115,2767.398c-0.628,0-1.263-0.168-1.837-0.52c-1.655-1.016-2.173-3.182-1.154-4.835
						c2.506-4.08,5.239-8.08,8.123-11.887c1.167-1.549,3.368-1.857,4.923-0.682c1.548,1.172,1.854,3.376,0.68,4.925
						c-2.743,3.627-5.349,7.438-7.738,11.324C2076.449,2766.802,2075.296,2767.398,2074.115,2767.398z"/>
					<path style="fill:#91B3FA;" d="M2326.094,2770.28c-1.208,0-2.383-0.622-3.035-1.739c-3.289-5.608-6.997-11.056-11.031-16.196
						c-1.497-1.916-3.035-3.775-4.607-5.587c-1.274-1.466-1.119-3.685,0.347-4.959c1.462-1.272,3.687-1.119,4.961,0.348
						c1.655,1.902,3.268,3.857,4.837,5.864c4.223,5.383,8.112,11.096,11.556,16.977c0.982,1.674,0.422,3.828-1.253,4.81
						C2327.31,2770.126,2326.699,2770.28,2326.094,2770.28z M2113.99,2724.76c-1.098,0-2.177-0.511-2.863-1.473
						c-1.13-1.579-0.762-3.775,0.817-4.902c7.642-5.462,15.823-10.22,24.306-14.143c1.771-0.824,3.852-0.043,4.666,1.717
						c0.817,1.761,0.048,3.85-1.713,4.666c-8.088,3.739-15.885,8.276-23.174,13.48
						C2115.411,2724.548,2114.698,2724.76,2113.99,2724.76z M2276.132,2719.161c-0.628,0-1.263-0.167-1.837-0.52
						c-7.601-4.667-15.693-8.641-24.049-11.812c-1.816-0.69-2.729-2.719-2.039-4.535c0.69-1.814,2.733-2.731,4.532-2.039
						c8.768,3.327,17.258,7.498,25.237,12.395c1.655,1.014,2.173,3.179,1.157,4.834
						C2278.467,2718.566,2277.313,2719.161,2276.132,2719.161z M2180.51,2698.654c-1.744,0-3.258-1.296-3.485-3.071
						c-0.244-1.926,1.116-3.686,3.042-3.933c9.283-1.183,18.824-1.504,28.107-0.94c1.936,0.117,3.412,1.782,3.296,3.72
						c-0.117,1.94-1.765,3.431-3.721,3.297c-8.837-0.529-17.941-0.23-26.789,0.9
						C2180.809,2698.645,2180.658,2698.654,2180.51,2698.654z"/>
					<path style="fill:#91B3FA;" d="M2344.928,2825.655c-1.744,0-3.258-1.296-3.485-3.071c-0.573-4.514-1.377-9.06-2.383-13.507
						c-0.429-1.895,0.762-3.776,2.654-4.206c1.898-0.422,3.773,0.759,4.206,2.654c1.054,4.667,1.895,9.434,2.499,14.17
						c0.244,1.926-1.119,3.687-3.045,3.933C2345.224,2825.646,2345.076,2825.655,2344.928,2825.655z"/>
				</g>
				<g>
					<path style="fill:#91B3FA;" d="M2308.548,2942.432c-0.838,0-1.679-0.299-2.352-0.903c-1.442-1.299-1.559-3.522-0.261-4.964
						c3.045-3.384,5.963-6.957,8.672-10.627c1.153-1.561,3.354-1.895,4.916-0.738c1.562,1.154,1.895,3.354,0.741,4.916
						c-2.846,3.85-5.908,7.603-9.104,11.152C2310.467,2942.039,2309.509,2942.432,2308.548,2942.432z"/>
					<path style="fill:#91B3FA;" d="M2199.354,2991.175c-6.396,0-12.861-0.412-19.219-1.227c-1.926-0.246-3.289-2.007-3.042-3.933
						c0.247-1.924,2.002-3.291,3.934-3.04c8.72,1.114,17.567,1.433,26.339,0.944c1.857-0.094,3.598,1.375,3.704,3.315
						c0.11,1.938-1.373,3.598-3.313,3.706C2204.957,2991.096,2202.152,2991.173,2199.354,2991.175z M2250.418,2982.01
						c-1.425,0-2.767-0.875-3.296-2.292c-0.677-1.82,0.25-3.843,2.07-4.52c8.222-3.061,16.211-6.908,23.747-11.434
						c1.658-1.004,3.821-0.464,4.823,1.202c0.999,1.665,0.46,3.824-1.205,4.823c-7.903,4.751-16.287,8.787-24.914,11.997
						C2251.239,2981.938,2250.827,2982.01,2250.418,2982.01z M2138.465,2978.033c-0.484,0-0.979-0.101-1.449-0.316
						c-8.401-3.811-16.479-8.42-24.011-13.698c-1.59-1.114-1.974-3.306-0.862-4.896c1.119-1.591,3.306-1.978,4.899-0.862
						c7.175,5.03,14.872,9.421,22.878,13.053c1.768,0.802,2.551,2.885,1.751,4.654
						C2141.081,2977.266,2139.804,2978.033,2138.465,2978.033z M2083.329,2934.462c-1.047,0-2.084-0.465-2.777-1.356
						c-5.678-7.295-10.698-15.128-14.917-23.28c-0.893-1.725-0.22-3.845,1.504-4.739c1.73-0.898,3.845-0.216,4.738,1.505
						c4.024,7.771,8.809,15.238,14.223,22.195c1.191,1.533,0.917,3.742-0.615,4.933
						C2084.843,2934.22,2084.081,2934.462,2083.329,2934.462z"/>
					<path style="fill:#91B3FA;" d="M2054.663,2870.156c-1.672,0-3.155-1.198-3.457-2.901c-0.834-4.695-1.452-9.494-1.84-14.268
						c-0.155-1.935,1.287-3.631,3.22-3.787c1.906-0.147,3.629,1.282,3.79,3.22c0.367,4.551,0.958,9.128,1.751,13.605
						c0.34,1.912-0.934,3.737-2.846,4.075C2055.071,2870.139,2054.865,2870.156,2054.663,2870.156z"/>
				</g>
				<g>
					<path style="fill:#91B3FA;" d="M2086.557,2835.698c-0.114,0.743,0.256,1.477,0.922,1.826l18.985,9.986
						c0.78,9.988,3.158,19.923,7.203,29.406l-12.201,17.626c-0.428,0.618-0.417,1.44,0.028,2.046l15.227,20.742
						c0.445,0.607,1.225,0.863,1.944,0.641l20.472-6.36c7.835,6.699,16.601,11.945,25.896,15.681l3.838,21.106
						c0.135,0.74,0.723,1.313,1.468,1.426l25.433,3.899c0.743,0.114,1.477-0.256,1.827-0.922l9.986-18.985
						c9.988-0.78,19.922-3.158,29.405-7.203l17.627,12.202c0.618,0.427,1.44,0.416,2.046-0.029l20.742-15.226
						c0.606-0.445,0.864-1.226,0.639-1.943l-6.359-20.472c6.7-7.836,11.947-16.602,15.682-25.897l21.105-3.839
						c0.739-0.135,1.313-0.724,1.427-1.467l3.9-25.433c0.114-0.743-0.256-1.477-0.921-1.827l-18.986-9.986
						c-0.78-9.987-3.158-19.922-7.203-29.405l12.201-17.627c0.428-0.618,0.417-1.439-0.028-2.045l-15.228-20.742
						c-0.445-0.606-1.225-0.863-1.943-0.64l-20.473,6.36c-7.834-6.7-16.601-11.946-25.896-15.682l-3.839-21.105
						c-0.134-0.74-0.724-1.313-1.467-1.427l-25.434-3.9c-0.743-0.113-1.477,0.257-1.827,0.922l-9.986,18.985
						c-9.988,0.78-19.922,3.158-29.405,7.203l-17.627-12.201c-0.617-0.428-1.439-0.417-2.046,0.029l-20.742,15.226
						c-0.606,0.445-0.863,1.226-0.64,1.944l6.359,20.472c-6.699,7.835-11.945,16.602-15.681,25.896l-21.105,3.839
						c-0.74,0.135-1.313,0.723-1.427,1.466L2086.557,2835.698z"/>
					<path style="fill:#91B3FA;" d="M2200.154,2868.213c-6.31,0-12.651-2.104-17.883-6.425l0,0
						c-11.954-9.874-13.65-27.633-3.78-39.591c9.877-11.954,27.633-13.648,39.591-3.778c5.792,4.784,9.376,11.535,10.09,19.013
						c0.714,7.479-1.528,14.786-6.313,20.578C2216.307,2864.734,2208.26,2868.213,2200.154,2868.213z M2188.986,2853.655
						c3.622,2.992,8.212,4.389,12.86,3.943c4.673-0.445,8.892-2.685,11.882-6.303c2.99-3.62,4.391-8.186,3.945-12.86
						c-0.446-4.672-2.688-8.894-6.307-11.882c-7.47-6.173-18.573-5.11-24.742,2.36
						C2180.455,2836.385,2181.516,2847.486,2188.986,2853.655L2188.986,2853.655z"/>
					<path style="fill:#BDD0FB;" d="M2200.81,2907.478c-20.736,0-41.204-9.515-54.387-27.473c-0.171-0.235-0.343-0.47-0.511-0.707
						c-2.396-3.356-4.487-6.923-6.224-10.631c-0.034-0.077-0.072-0.156-0.106-0.233c-0.028-0.057-0.055-0.113-0.079-0.17
						c-0.01-0.021-0.021-0.041-0.031-0.062c-0.089-0.194-0.175-0.39-0.264-0.585l9.626-4.309c1.641,3.667,3.69,7.186,6.09,10.457
						c0.223,0.302,0.45,0.603,0.676,0.899c13.757,17.99,36.353,25.522,57.264,20.978c7.439-1.615,14.669-4.762,21.213-9.508
						c0.089-0.065,0.178-0.129,0.268-0.194c12.232-8.981,20.238-22.188,22.535-37.188c0.45-2.915,0.67-5.831,0.67-8.725
						c0.003-12-3.794-23.651-11.027-33.506c-18.542-25.25-54.164-30.716-79.418-12.179c-8.305,6.097-14.786,14.309-18.752,23.75
						l-9.722-4.082c4.703-11.202,12.39-20.942,22.233-28.169c29.94-21.982,72.185-15.502,94.16,14.438
						c8.579,11.685,13.077,25.498,13.077,39.726c0,3.431-0.264,6.887-0.793,10.344c-2.726,17.785-12.215,33.442-26.72,44.09
						C2228.604,2903.238,2214.646,2907.478,2200.81,2907.478z"/>
				</g>
			</g>
		</g>
		<g>
			<g>
				<path style="fill:#BDD0FB;" d="M1197.559,2150.917c0,0,7.876-331.127-144.639-419.752
					c-152.513-88.625-442.497-144.033-453.366-619.501c-6.364-278.36-13.251-400.064-17.868-453.132
					c-1.801-20.701,16.595-37.41,37.015-33.564c144.443,27.211,613.678,139.212,712.056,459.486
					C1447.386,1464.142,1197.559,2150.917,1197.559,2150.917z"/>
				
					<linearGradient id="SVGID_00000003092808335396271940000002542566467814376885_" gradientUnits="userSpaceOnUse" x1="1719.0742" y1="199.6925" x2="717.0571" y2="1813.4653">
					<stop  offset="0" style="stop-color:#DAE3FE"/>
					<stop  offset="1" style="stop-color:#E9EFFD"/>
				</linearGradient>
				<path style="fill:url(#SVGID_00000003092808335396271940000002542566467814376885_);" d="M730.409,757.259
					c158.556,141.409,341.896,391.674,439.618,641.94c12.544,41.245,49.236,128.958,65.17,284.8
					c14.231,129.975,7.156,267.319-10.1,358.235c-1.091,5.748-6.635,9.523-12.382,8.432c-9.883-1.875-8.569-12.505-8.479-12.169
					c19.708-155.331,11.527-348.666-33.631-523.11c-57.694-214.197-186.373-421.869-319.469-598.005l-13.697-17.344
					C734.32,767.609,712.612,766.634,722.252,757.403C724.528,755.222,728.092,755.203,730.409,757.259z"/>
			</g>
			<g>
				<path style="fill:#91B3FA;" d="M1050.055,1734.502c-14.914-100.568-32.59-228.39-115.249-298.453
					c-96.329-81.648-424.122-30.101-531.376-10.511c-13.402,2.447-17.914,19.377-7.482,28.139
					c51.434,43.196,161.462,145.084,190.132,247.776c26.26,94.051,98.75,168.122,184.737,211.051
					c46.903,23.417,82.354,19.965,130.719,28.244c58.481,10.01,109.949,44.833,170.273,47.706
					C1072.64,1902.86,1062.69,1819.257,1050.055,1734.502z"/>
				<path style="fill:#BDD0FB;" d="M554.276,1482.724c136.84,5.731,283.726,68.153,358.266,185.243l7.036,11.173
					c16.25,26.198,108.341,212.44,159.488,366.824c0.637,1.925-0.406,4.002-2.331,4.64c-3.269,1.082-4.906-2.515-4.595-2.197
					c-35.635-87.216-86.817-197.791-127.58-280.48c-43.714-90.231-74.306-151.338-174.017-209.869
					c-110.981-63.036-217.007-69.525-216.69-69.46c-1.618-0.165-2.797-1.611-2.631-3.229
					C551.382,1483.812,552.734,1482.663,554.276,1482.724z"/>
			</g>
		</g>
		<g>
			<g>
				
					<linearGradient id="SVGID_00000141415955761686424500000007873573033077141418_" gradientUnits="userSpaceOnUse" x1="826.181" y1="2005.1497" x2="1219.9174" y2="3151.2026">
					<stop  offset="0" style="stop-color:#09005D"/>
					<stop  offset="1" style="stop-color:#1A0F91"/>
				</linearGradient>
				<path style="fill:url(#SVGID_00000141415955761686424500000007873573033077141418_);" d="M648.093,2171.943
					c0,0,271.918,717.137,357.827,866.32c99.723,173.174,390.967,62.823,376.474-82.104s-354.766-743.963-354.766-743.963
					L648.093,2171.943z"/>
				
					<linearGradient id="SVGID_00000080166331383577757750000014749090534294810251_" gradientUnits="userSpaceOnUse" x1="-773.4401" y1="3621.7075" x2="1884.2776" y2="2131.1379">
					<stop  offset="0" style="stop-color:#E1473D"/>
					<stop  offset="1" style="stop-color:#E9605A"/>
				</linearGradient>
				<polygon style="fill:url(#SVGID_00000080166331383577757750000014749090534294810251_);" points="1015.505,1649.546 
					2705.575,1063.572 2687.826,2649.311 969.318,2265.869 				"/>
				
					<linearGradient id="SVGID_00000124159792373876964210000017789579279608889255_" gradientUnits="userSpaceOnUse" x1="5082.0659" y1="1020.3694" x2="3890.1885" y2="1442.2738">
					<stop  offset="0" style="stop-color:#FEBBBA"/>
					<stop  offset="1" style="stop-color:#FF928E"/>
				</linearGradient>
				
					<ellipse style="fill:url(#SVGID_00000124159792373876964210000017789579279608889255_);" cx="2707.168" cy="1861.043" rx="166.043" ry="814.923"/>
				
					<linearGradient id="SVGID_00000151535320313476739860000009861997306559686572_" gradientUnits="userSpaceOnUse" x1="2776.1191" y1="1855.8418" x2="4097.9482" y2="1841.7797">
					<stop  offset="0" style="stop-color:#E1473D"/>
					<stop  offset="1" style="stop-color:#E9605A"/>
				</linearGradient>
				<path style="fill:url(#SVGID_00000151535320313476739860000009861997306559686572_);" d="M2719.771,2620.236
					c-15.007-15.264-47.701-74.143-75.728-226.4c-27.089-147.14-42.006-337.991-42.006-537.393
					c0-199.403,14.917-390.253,42.006-537.394c28.027-152.259,60.721-211.138,75.728-226.402
					c15.007,15.265,47.701,74.144,75.729,226.402c27.089,147.141,42.007,337.99,42.007,537.394
					c0,199.402-14.917,390.253-42.007,537.393C2767.471,2546.093,2734.778,2604.972,2719.771,2620.236z"/>
				<g>
					<defs>
						<path id="SVGID_00000017515261411709124240000014959256365894718355_" d="M2719.771,2620.236
							c-15.007-15.264-47.701-74.143-75.728-226.4c-27.089-147.14-42.006-337.991-42.006-537.393
							c0-199.403,14.917-390.253,42.006-537.394c28.027-152.259,60.721-211.138,75.728-226.402
							c15.007,15.265,47.701,74.144,75.729,226.402c27.089,147.141,240.845,337.99,240.845,537.394
							c0,199.402-213.756,390.253-240.845,537.393C2767.471,2546.093,2734.778,2604.972,2719.771,2620.236z"/>
					</defs>
					<clipPath id="SVGID_00000011711075862790112520000000129487768955787429_">
						<use xlink:href="#SVGID_00000017515261411709124240000014959256365894718355_"  style="overflow:visible;"/>
					</clipPath>
					
						<linearGradient id="SVGID_00000039831766687009921580000002178703314119762082_" gradientUnits="userSpaceOnUse" x1="3100.4695" y1="1619.2581" x2="2221.5918" y2="2132.522">
						<stop  offset="0" style="stop-color:#09005D"/>
						<stop  offset="1" style="stop-color:#1A0F91"/>
					</linearGradient>
					
						<path style="clip-path:url(#SVGID_00000011711075862790112520000000129487768955787429_);fill:url(#SVGID_00000039831766687009921580000002178703314119762082_);" d="
						M2932.593,1850.373c0,138.464-74.59,250.712-222.223,250.712c-147.632,0-267.311-112.248-267.311-250.712
						c0-138.464,119.68-250.712,267.311-250.712C2858.002,1599.661,2932.593,1711.909,2932.593,1850.373z"/>
				</g>
				
					<linearGradient id="SVGID_00000162345198632605907730000008716756819819661719_" gradientUnits="userSpaceOnUse" x1="1915.6489" y1="1071.5499" x2="1374.2614" y2="1535.5964">
					<stop  offset="0" style="stop-color:#09005D"/>
					<stop  offset="1" style="stop-color:#1A0F91"/>
				</linearGradient>
				<path style="fill:url(#SVGID_00000162345198632605907730000008716756819819661719_);" d="M742.922,1615.459
					c79.504-9.233,193.51-12.555,316.777,15.675c-40.612,212.145-34.483,433.263,12.486,662.223l-347.675,0
					c-55.431,0-102.698-40.263-111.342-95.017c-17.327-109.75-38.51-294.213-15.923-442.365
					C608.579,1681.624,668.214,1624.135,742.922,1615.459z"/>
				<path style="fill:#91B3FA;" d="M951.579,1777.936H680.698c-9.194,0-17.307-4.821-21.701-12.897
					c-4.392-8.076-4.034-17.509,0.961-25.227c2.09-3.229,6.403-4.136,9.632-2.063c3.229,2.091,4.154,6.403,2.064,9.636
					c-2.177,3.365-2.333,7.474-0.42,10.997c1.916,3.519,5.455,5.623,9.464,5.623h270.881c5.941,0,10.772-4.83,10.772-10.77v-19.277
					c0-5.941-4.832-10.77-10.772-10.77H678.69c-3.848,0-6.965-3.12-6.965-6.965c0-3.845,3.118-6.965,6.965-6.965h272.89
					c13.622,0,24.703,11.083,24.703,24.701v19.277C976.282,1766.853,965.202,1777.936,951.579,1777.936z"/>
				<path style="fill:#91B3FA;" d="M927.425,1897.903H656.544c-9.194,0-17.307-4.82-21.701-12.897
					c-4.392-8.077-4.034-17.509,0.962-25.227c2.091-3.224,6.405-4.136,9.632-2.064c3.229,2.091,4.154,6.404,2.063,9.636
					c-2.177,3.365-2.333,7.474-0.419,10.997c1.916,3.519,5.455,5.623,9.464,5.623h270.881c5.94,0,10.772-4.829,10.772-10.77v-19.273
					c0-5.941-4.832-10.775-10.772-10.775h-272.89c-3.848,0-6.965-3.12-6.965-6.965c0-3.845,3.117-6.965,6.965-6.965h272.89
					c13.622,0,24.703,11.083,24.703,24.705v19.273C952.128,1886.82,941.047,1897.903,927.425,1897.903z"/>
				<path style="opacity:0.69;fill:#FFFFFF;" d="M1261.083,1606.625c-2.952,0-5.691-1.891-6.634-4.852
					c-1.168-3.669,0.859-7.583,4.523-8.752l1280.04-407.333c3.664-1.165,7.582,0.862,8.75,4.526
					c1.168,3.668-0.859,7.582-4.523,8.752l-1280.04,407.333C1262.495,1606.521,1261.783,1606.625,1261.083,1606.625z"/>
				<path style="opacity:0.69;fill:#FFFFFF;" d="M1087.985,1677.386c-2.746,0-5.347-1.633-6.45-4.331
					c-1.456-3.56,0.252-7.627,3.813-9.083l65.88-26.927c3.557-1.465,7.627,0.254,9.083,3.814c1.456,3.56-0.252,7.627-3.814,9.083
					l-65.879,26.927C1089.756,1677.223,1088.863,1677.386,1087.985,1677.386z"/>
				<path style="fill:#91B3FA;" d="M951.579,2038.405H680.698c-9.194,0-17.305-4.82-21.699-12.897
					c-4.394-8.076-4.036-17.509,0.959-25.227c2.09-3.233,6.403-4.145,9.632-2.068c3.229,2.091,4.154,6.403,2.064,9.632
					c-2.179,3.369-2.336,7.483-0.417,11.006c1.916,3.519,5.453,5.623,9.462,5.623h270.881c5.941,0,10.772-4.834,10.772-10.775
					v-19.273c0-5.941-4.832-10.77-10.772-10.77H678.69c-3.848,0-6.965-3.12-6.965-6.965c0-3.845,3.118-6.965,6.965-6.965h272.89
					c13.622,0,24.703,11.083,24.703,24.701v19.273C976.282,2027.322,965.202,2038.405,951.579,2038.405z"/>
				<path style="fill:#91B3FA;" d="M976.942,2194.356H706.061c-9.194,0-17.305-4.821-21.699-12.897
					c-4.394-8.076-4.036-17.509,0.959-25.227c2.093-3.233,6.405-4.145,9.632-2.068c3.229,2.09,4.154,6.403,2.063,9.632
					c-2.179,3.369-2.335,7.482-0.418,11.006c1.916,3.519,5.453,5.624,9.462,5.624h270.881c5.94,0,10.773-4.83,10.773-10.771v-19.277
					c0-5.94-4.832-10.77-10.773-10.77h-272.89c-3.848,0-6.965-3.12-6.965-6.965c0-3.845,3.118-6.966,6.965-6.966h272.89
					c13.622,0,24.703,11.083,24.703,24.701v19.277C1001.646,2183.273,990.565,2194.356,976.942,2194.356z"/>
				<path style="fill:#91B3FA;" d="M1218.873,3042.261c-12.482,0-25.097-1.347-37.684-4.091
					c-55.073-11.999-99.908-48.313-123.008-99.634l-216.418-480.796c-1.58-3.506-0.016-7.628,3.492-9.21
					c3.508-1.583,7.632-0.009,9.21,3.496l216.418,480.796c21.271,47.248,62.557,80.688,113.272,91.734
					c49.844,10.87,100.28-2.031,138.385-35.381c2.043-1.786,4.095-3.623,6.156-5.505c2.839-2.594,7.245-2.399,9.841,0.444
					c2.594,2.839,2.396,7.246-0.444,9.84c-2.138,1.954-4.263,3.854-6.381,5.705
					C1299.88,3027.514,1260.14,3042.261,1218.873,3042.261z"/>
				<path style="fill:#91B3FA;" d="M816.118,2390.758c-2.657,0-5.194-1.528-6.355-4.104l-24.143-53.637
					c-1.581-3.505-0.016-7.628,3.492-9.21c3.505-1.578,7.632-0.009,9.21,3.492l24.143,53.633c1.581,3.51,0.016,7.632-3.492,9.215
					C818.046,2390.563,817.073,2390.758,816.118,2390.758z"/>
				<path style="fill:#91B3FA;" d="M2893.02,1843.155c-3.623,0-6.68-2.802-6.94-6.471c-4.813-67.845-28.329-118.426-69.892-150.337
					c-71.876-55.184-174.437-36.22-175.467-36.015c-3.798,0.721-7.428-1.741-8.156-5.519c-0.73-3.778,1.744-7.433,5.521-8.158
					c4.444-0.857,109.792-20.311,186.586,38.641c44.86,34.442,70.196,88.41,75.302,160.4c0.272,3.836-2.616,7.169-6.456,7.441
					C2893.351,1843.151,2893.185,1843.155,2893.02,1843.155z"/>
			</g>
		</g>
		
			<linearGradient id="SVGID_00000034071143579302892970000009507554143968291218_" gradientUnits="userSpaceOnUse" x1="-2932.8176" y1="2504.2617" x2="-2046.9781" y2="1940.0656" gradientTransform="matrix(-0.4885 -0.8726 0.8726 -0.4885 -410.3203 910.4916)">
			<stop  offset="0" style="stop-color:#E1473D"/>
			<stop  offset="1" style="stop-color:#E9605A"/>
		</linearGradient>
		<polygon style="fill:url(#SVGID_00000034071143579302892970000009507554143968291218_);" points="3260.758,2304.983 
			3053.184,2279.074 3080.1,2173.443 2850.645,2103.262 3187.475,2119.775 3142.917,2228.828 		"/>
		
			<linearGradient id="SVGID_00000096770087395560138600000000304560117758657978_" gradientUnits="userSpaceOnUse" x1="-2076.7871" y1="3403.5581" x2="-1190.934" y2="2839.353" gradientTransform="matrix(-0.0155 -0.9999 0.9999 -0.0155 -431.3194 691.6908)">
			<stop  offset="0" style="stop-color:#E1473D"/>
			<stop  offset="1" style="stop-color:#E9605A"/>
		</linearGradient>
		<polygon style="fill:url(#SVGID_00000096770087395560138600000000304560117758657978_);" points="3110.055,2915.845 
			2970.219,2816.203 3030.843,2750.396 2892.463,2610.246 3129.327,2753.493 3054.625,2814.893 		"/>
		
			<linearGradient id="SVGID_00000170997165022761305440000011516660222153066136_" gradientUnits="userSpaceOnUse" x1="-2654.103" y1="297.088" x2="-1566.042" y2="-395.9045" gradientTransform="matrix(-0.9976 0.0686 -0.0686 -0.9976 457.9969 1693.6475)">
			<stop  offset="0" style="stop-color:#E1473D"/>
			<stop  offset="1" style="stop-color:#E9605A"/>
		</linearGradient>
		<polygon style="fill:url(#SVGID_00000170997165022761305440000011516660222153066136_);" points="3319.803,1025.758 
			3155.379,1284.567 3075.148,1218.173 2920.81,1387.666 3072.661,1103.519 3148.639,1186.547 		"/>
	</g>
</g>
</svg>
